STARTFONT 2.1
FONT -xmbdfed-Unknown-Medium-R-Normal--15-120-90-90-P-100-FontSpecific-0
SIZE 12 90 90
FONTBOUNDINGBOX 34 28 0 -4
STARTPROPERTIES 9
POINT_SIZE 120
PIXEL_SIZE 15
RESOLUTION_X 90
RESOLUTION_Y 90
FONT_ASCENT 12
FONT_DESCENT 3
AVERAGE_WIDTH 100
SPACING "P"
_XMBDFED_INFO "Edited with xmbdfed 4.5."
ENDPROPERTIES
CHARS 440
STARTCHAR hoy-geez
ENCODING 4608
SWIDTH 866 0
DWIDTH 14 0
BBX 11 15 0 0
BITMAP
01E0
10E0
78E0
78E0
78E0
70E0
70E0
70E0
71E0
F1C0
E1C0
E180
E380
7300
3C00
ENDCHAR
STARTCHAR hoy-kaib
ENCODING 4609
SWIDTH 1266 0
DWIDTH 20 0
BBX 17 13 0 0
BITMAP
01E000
18E000
78E000
78E000
70E380
70FF80
70E780
71E380
E1C000
E1C000
E38000
730000
3C0000
ENDCHAR
STARTCHAR hoy-salis
ENCODING 4610
SWIDTH 1000 0
DWIDTH 16 0
BBX 13 18 0 -1
BITMAP
00E0
71E0
F1E0
F1C0
73C0
73C0
7F80
6780
0700
0F00
0F00
0E00
1E00
1C00
3C38
3C70
1FF0
0078
ENDCHAR
STARTCHAR hoy-rabi
ENCODING 4611
SWIDTH 800 0
DWIDTH 13 0
BBX 10 16 0 0
BITMAP
03C0
71C0
F1C0
73C0
73C0
7380
7F80
4700
0F00
0E00
1E00
1C00
3C00
3800
7800
3C00
ENDCHAR
STARTCHAR hoy-hamis
ENCODING 4612
SWIDTH 933 0
DWIDTH 15 0
BBX 12 16 0 -1
BITMAP
00E0
F1E0
F1C0
F3C0
F380
F780
FF00
4700
0F00
0E00
1FF0
1C70
3C70
38E0
3F80
3800
ENDCHAR
STARTCHAR hoy-sadis
ENCODING 4613
SWIDTH 933 0
DWIDTH 15 0
BBX 12 15 0 0
BITMAP
0070
20F0
F070
7070
F070
F070
F870
B870
78F0
78F0
78E0
70E0
71C0
7980
3E00
ENDCHAR
STARTCHAR hoy-sabi
ENCODING 4614
SWIDTH 1200 0
DWIDTH 19 0
BBX 16 15 0 0
BITMAP
001E
01EF
71E7
F1EF
71CE
71F0
71C0
F1C0
F1C0
F1C0
E1C0
E180
E380
7300
3C00
ENDCHAR
STARTCHAR lawi-geez
ENCODING 4616
SWIDTH 933 0
DWIDTH 15 0
BBX 12 16 0 0
BITMAP
0400
1E00
0E00
0F00
1F80
3F80
3BC0
71C0
71C0
E1C0
E1E0
E1E0
E1E0
E1E0
E0E0
F0F0
ENDCHAR
STARTCHAR lawi-kaib
ENCODING 4617
SWIDTH 1266 0
DWIDTH 20 0
BBX 17 16 0 0
BITMAP
040000
1E0000
0E0000
0F0000
1F8000
3F8080
3BC700
71FF00
71C780
61C300
E1E000
E1E000
E1E000
E1E000
E0E000
F0F000
ENDCHAR
STARTCHAR lawi-salis
ENCODING 4618
SWIDTH 1333 0
DWIDTH 21 0
BBX 18 17 0 -1
BITMAP
040000
1E0000
0E0000
0F0000
1F8000
3F8000
3BC000
71C000
71C000
E1C000
E1C000
E1E000
E1E000
E1E080
E1E380
F0FF80
0003C0
ENDCHAR
STARTCHAR lawi-rabi
ENCODING 4619
SWIDTH 866 0
DWIDTH 14 0
BBX 11 16 0 0
BITMAP
0400
1E00
1E00
0F00
1F00
3F80
7B80
73C0
F1C0
F1C0
F1C0
F1C0
01C0
01C0
01C0
01E0
ENDCHAR
STARTCHAR lawi-hamis
ENCODING 4620
SWIDTH 1200 0
DWIDTH 19 0
BBX 16 16 0 0
BITMAP
0400
1E00
0E00
0F00
1F80
3FC0
3BC0
73C0
71E0
F1E0
E1FF
E1EF
E1E7
E1E7
F1FC
C0E0
ENDCHAR
STARTCHAR lawi-sadis
ENCODING 4621
SWIDTH 1266 0
DWIDTH 20 0
BBX 17 16 0 0
BITMAP
020000
0F0000
0F0000
07C000
0FE000
1FF000
3CF000
387800
703800
703C00
773C00
FF9E00
E79E00
E70E00
F80F80
C00700
ENDCHAR
STARTCHAR lawi-sabi
ENCODING 4622
SWIDTH 1466 0
DWIDTH 23 0
BBX 20 16 0 0
BITMAP
040000
1E0000
0E0000
0F0000
1F8040
3F8FF0
3BFEF0
71CEF0
71CFE0
E1C700
E1E000
E1E000
E1E000
E1E000
E0E000
F0F000
ENDCHAR
STARTCHAR lawi-zemede-rabi
ENCODING 4623
SWIDTH 1200 0
DWIDTH 19 0
BBX 16 19 0 -3
BITMAP
0400
1E00
0E00
1F00
3F80
7B80
73C0
73C0
F3C0
F1C0
F1C0
41C0
01C0
01C0
01E0
3FFF
380F
3807
7000
ENDCHAR
STARTCHAR hawt-geez
ENCODING 4624
SWIDTH 1333 0
DWIDTH 21 0
BBX 18 15 0 0
BITMAP
01F000
00F000
00F000
00F000
00E000
01E000
01FF00
1FEF80
39E380
71E380
71E380
E3C380
E3C380
E3C380
F3E3C0
ENDCHAR
STARTCHAR hawt-kaib
ENCODING 4625
SWIDTH 1600 0
DWIDTH 25 0
BBX 22 15 0 0
BITMAP
01E000
01E000
01E000
01E000
01E000
01E000
01FE00
1FCF00
39C71C
73C7F8
63C77C
E3C73C
E3C700
E3C700
E3C780
ENDCHAR
STARTCHAR hawt-salis
ENCODING 4626
SWIDTH 1733 0
DWIDTH 27 0
BBX 24 16 0 -1
BITMAP
00F000
01F000
00F000
00F000
00E000
01E000
01FF00
1FEF80
39E380
71E380
71E380
E3C380
E3C38E
E3C3FE
F3E3DE
00001F
ENDCHAR
STARTCHAR hawt-rabi
ENCODING 4627
SWIDTH 1266 0
DWIDTH 20 0
BBX 17 15 0 0
BITMAP
03E000
01E000
01E000
01E000
01E000
01C000
01FE00
3FCF00
73C700
E3C700
E3C700
F3A700
000700
000780
000780
ENDCHAR
STARTCHAR hawt-hamis
ENCODING 4628
SWIDTH 1600 0
DWIDTH 25 0
BBX 22 15 0 0
BITMAP
01F000
00F000
00F000
00F000
00E000
01E000
01FF00
1FEF80
39E380
71E380
71E3F8
E3C3BC
E3C39C
E3C3BC
F3E3F0
ENDCHAR
STARTCHAR hawt-sadis
ENCODING 4629
SWIDTH 1333 0
DWIDTH 21 0
BBX 18 16 0 0
BITMAP
1E0000
1F0000
1F7000
1FF000
00F000
00E000
01E000
01FF00
1FEF80
39E380
71E380
71E380
E3C380
E3C380
E3C380
F3E3C0
ENDCHAR
STARTCHAR hawt-sabi
ENCODING 4630
SWIDTH 1333 0
DWIDTH 21 0
BBX 18 15 0 0
BITMAP
01F000
00F000
00F000
00F000
00F000
00E000
01FF00
1FE780
39E380
71E380
71E380
E1F3C0
E00000
E00000
F00000
ENDCHAR
STARTCHAR hawt-zemede-rabi
ENCODING 4631
SWIDTH 1600 0
DWIDTH 25 0
BBX 22 19 0 -4
BITMAP
03E000
01E000
01E000
01E000
01C000
03C000
03FE00
3FDF00
73C700
E3C700
E3C700
E3C700
F1E700
000700
0007FC
00FFBC
00E03C
00E01C
01C000
ENDCHAR
STARTCHAR may-geez
ENCODING 4632
SWIDTH 1533 0
DWIDTH 24 0
BBX 21 10 0 0
BITMAP
000FF0
07F7F8
1CE778
38EF78
79EE78
71CE78
F3CEF0
F38FC0
FF8000
700000
ENDCHAR
STARTCHAR may-kaib
ENCODING 4633
SWIDTH 1933 0
DWIDTH 30 0
BBX 27 10 0 0
BITMAP
000F7000
07F7F800
1CF738E0
38E73FE0
79E739E0
71CF38E0
F3CF7000
F3CFC000
FF800000
70000000
ENDCHAR
STARTCHAR may-salis
ENCODING 4634
SWIDTH 1666 0
DWIDTH 26 0
BBX 23 17 0 -1
BITMAP
0001C0
0FFFE0
3B9CE0
73BDE0
F7BDE0
F7BFE0
E719C0
FF01C0
7003C0
000380
000380
000780
000780
00070E
000F1E
0007FE
00001E
ENDCHAR
STARTCHAR may-rabi
ENCODING 4635
SWIDTH 1333 0
DWIDTH 21 0
BBX 18 16 0 0
BITMAP
000380
1FFFC0
3739C0
7739C0
F73BC0
E73FC0
E71380
FE0380
600780
000700
000700
000F00
000F00
000E00
000E00
000F00
ENDCHAR
STARTCHAR may-hamis
ENCODING 4636
SWIDTH 1533 0
DWIDTH 24 0
BBX 21 16 0 0
BITMAP
0003C0
1FFFC0
3BB9E0
77B9E0
F739C0
E73FC0
E71BC0
FF03C0
600380
000380
000780
0007F0
000778
000F78
000F78
0007F0
ENDCHAR
STARTCHAR may-sadis
ENCODING 4637
SWIDTH 1400 0
DWIDTH 22 0
BBX 19 16 0 0
BITMAP
007BC0
1F9FE0
339DE0
739CE0
F39CE0
F39FC0
F38E00
F38000
7F8000
0F0000
1E0000
1E0000
3C0000
780000
780000
780000
ENDCHAR
STARTCHAR may-sabi
ENCODING 4638
SWIDTH 1400 0
DWIDTH 22 0
BBX 19 16 0 0
BITMAP
000FC0
1FF9C0
3BDDE0
739CE0
F39CE0
F39CE0
F39DC0
FF9E00
778800
070000
070000
070000
0F0000
0F0000
0F0000
0F0000
ENDCHAR
STARTCHAR may-zemede-rabi
ENCODING 4639
SWIDTH 1533 0
DWIDTH 24 0
BBX 21 19 0 -3
BITMAP
001B80
1FFFC0
7739C0
7739C0
E739C0
E73FC0
E70380
FE0380
400780
000700
000700
000F00
000F00
000E00
000EF8
01FF78
01C078
01C038
038000
ENDCHAR
STARTCHAR sewt-geez
ENCODING 4640
SWIDTH 1266 0
DWIDTH 20 0
BBX 17 11 0 0
BITMAP
004300
39E780
79E380
71E380
71E380
71E700
F1FE00
F3F000
F38000
FF0000
700000
ENDCHAR
STARTCHAR sewt-kaib
ENCODING 4641
SWIDTH 1666 0
DWIDTH 26 0
BBX 23 11 0 0
BITMAP
004380
39E780
78E38E
79E39C
71E3FC
71E71E
F1FE04
F3F000
F38000
FF0000
700000
ENDCHAR
STARTCHAR sewt-salis
ENCODING 4642
SWIDTH 1533 0
DWIDTH 24 0
BBX 21 15 0 -1
BITMAP
000F00
F3CF00
71CF00
71CF00
F3FE00
F70E00
FC0E00
001E00
001E00
001C00
001C00
003C28
003C70
001FF0
000078
ENDCHAR
STARTCHAR sewt-rabi
ENCODING 4643
SWIDTH 1200 0
DWIDTH 19 0
BBX 16 14 0 0
BITMAP
000F
F3CF
71CF
71CF
F3FE
F70E
FE0E
001E
001C
001C
001C
003C
003C
001E
ENDCHAR
STARTCHAR sewt-hamis
ENCODING 4644
SWIDTH 1400 0
DWIDTH 22 0
BBX 19 14 0 0
BITMAP
000E00
F3CF00
71CF00
71CE00
F3FE00
F70E00
FC1E00
001C00
001C00
001FE0
003CE0
003CE0
003DE0
003F80
ENDCHAR
STARTCHAR sewt-sadis
ENCODING 4645
SWIDTH 1600 0
DWIDTH 25 0
BBX 22 14 0 0
BITMAP
00003C
03CF1C
01C71C
03C71C
078718
078DF0
0FF800
1E0000
1E0000
3C0000
780000
780000
F00000
F00000
ENDCHAR
STARTCHAR sewt-sabi
ENCODING 4646
SWIDTH 1200 0
DWIDTH 19 0
BBX 16 14 0 0
BITMAP
000F
B9E7
79E7
71E7
F3CE
F7FC
FF80
0F00
0E00
1E00
3C00
3800
7800
7800
ENDCHAR
STARTCHAR sewt-zemede-rabi
ENCODING 4647
SWIDTH 1533 0
DWIDTH 24 0
BBX 21 18 0 -4
BITMAP
000F00
F3CF00
71CF00
71CF00
F3FE00
F70E00
FE0E00
001E00
001C00
001C00
001C00
003C00
003C00
001EF8
01FF78
01C078
01C038
038000
ENDCHAR
STARTCHAR ris-geez
ENCODING 4648
SWIDTH 1000 0
DWIDTH 16 0
BBX 13 15 0 0
BITMAP
01F0
00F0
00E0
01E0
03C0
0780
0F00
3E00
3C00
7800
F000
F030
F0F0
F9F0
3E78
ENDCHAR
STARTCHAR ris-kaib
ENCODING 4649
SWIDTH 1133 0
DWIDTH 18 0
BBX 15 15 0 0
BITMAP
0380
0780
0700
0E00
3C00
7000
F000
F00C
FFFC
073C
071E
0700
0F00
0F00
0F80
ENDCHAR
STARTCHAR ris-salis
ENCODING 4650
SWIDTH 933 0
DWIDTH 15 0
BBX 12 15 0 0
BITMAP
01E0
00E0
01E0
01C0
0380
0700
0E00
3C00
7800
70F0
F0F0
F0F0
F0E0
FB80
7C00
ENDCHAR
STARTCHAR ris-rabi
ENCODING 4651
SWIDTH 1266 0
DWIDTH 20 0
BBX 17 15 0 0
BITMAP
01E000
00F000
01E000
01E000
03C000
078000
0E0000
3C0000
781F00
786700
F0E780
F1C000
F1C000
FF8000
7C0000
ENDCHAR
STARTCHAR ris-hamis
ENCODING 4652
SWIDTH 1133 0
DWIDTH 18 0
BBX 15 15 0 0
BITMAP
01E0
01E0
01E0
01C0
0380
0700
1E00
3C00
7800
70FC
F3DE
F38E
F39C
FBF8
7C80
ENDCHAR
STARTCHAR ris-sadis
ENCODING 4653
SWIDTH 1000 0
DWIDTH 16 0
BBX 13 15 0 0
BITMAP
01F0
0EF8
3878
7878
7000
F000
F000
F000
F000
F000
F000
F070
F0F0
FFF0
7C78
ENDCHAR
STARTCHAR ris-sabi
ENCODING 4654
SWIDTH 1133 0
DWIDTH 18 0
BBX 15 15 0 0
BITMAP
00FC
01CE
1FCE
3BCE
71FC
71C0
F000
F000
F000
E000
E000
F070
F0E0
F3E0
7CF0
ENDCHAR
STARTCHAR ris-zemede-rabi
ENCODING 4655
SWIDTH 1266 0
DWIDTH 20 0
BBX 17 16 0 0
BITMAP
380380
1C0700
1F0F00
00F000
01E000
01C000
038000
0F0000
1E0000
3C0000
783F00
70E700
F1C380
F1C000
F3C000
7C0000
ENDCHAR
STARTCHAR sat-geez
ENCODING 4656
SWIDTH 933 0
DWIDTH 15 0
BBX 12 17 0 0
BITMAP
0780
0F80
0F80
0F80
0FC0
30E0
7070
6070
E070
E070
E070
E070
E070
E070
E070
E070
F070
ENDCHAR
STARTCHAR sat-kaib
ENCODING 4657
SWIDTH 1266 0
DWIDTH 20 0
BBX 17 17 0 0
BITMAP
0F0000
0F0000
0F0000
0F0000
0F8000
31C000
70E000
60E000
E0E780
E0FF80
E0E780
E0E300
E0E000
E0E000
E0E000
E0E000
F0F000
ENDCHAR
STARTCHAR sat-salis
ENCODING 4658
SWIDTH 1333 0
DWIDTH 21 0
BBX 18 18 0 -1
BITMAP
070000
1F0000
0F0000
0F0000
0F8000
31C000
70E000
60E000
E0E000
E0E000
E0E000
E0E000
E0E000
E0E000
E0E1C0
E0E780
F0FF80
0003C0
ENDCHAR
STARTCHAR sat-rabi
ENCODING 4659
SWIDTH 933 0
DWIDTH 15 0
BBX 12 17 0 0
BITMAP
1F00
0F00
0F00
0F00
0F80
31C0
60E0
E0E0
E0E0
E0E0
E0E0
E0E0
F0E0
00E0
00E0
00E0
00F0
ENDCHAR
STARTCHAR sat-hamis
ENCODING 4660
SWIDTH 1133 0
DWIDTH 18 0
BBX 15 17 0 0
BITMAP
1E00
0E00
0E00
0E00
0F80
33C0
71C0
61C0
E1C0
E1C0
E3C0
E3C0
E3FE
E3CE
E38E
E3CC
F3F8
ENDCHAR
STARTCHAR sat-sadis
ENCODING 4661
SWIDTH 933 0
DWIDTH 15 0
BBX 12 17 0 0
BITMAP
3E00
3E00
1F00
1F00
0FC0
30E0
7070
6070
E070
E070
E070
E070
E070
E070
E070
E070
F070
ENDCHAR
STARTCHAR sat-sabi
ENCODING 4662
SWIDTH 933 0
DWIDTH 15 0
BBX 12 17 0 0
BITMAP
0780
0F80
0F80
0F80
0FC0
30E0
7070
6070
E070
E070
E070
E070
E070
E000
E000
E000
F000
ENDCHAR
STARTCHAR sat-zemede-rabi
ENCODING 4663
SWIDTH 1133 0
DWIDTH 18 0
BBX 15 19 0 -2
BITMAP
0E00
0E00
0E00
1F80
31C0
71C0
71C0
71C0
F1C0
E1C0
E1C0
E3C0
F380
0380
0380
0FFE
701E
700E
E000
ENDCHAR
STARTCHAR sha-sat-geez
ENCODING 4664
SWIDTH 1200 0
DWIDTH 19 0
BBX 16 19 0 0
BITMAP
000E
003E
E3FE
7F9F
E780
0780
07C0
1CE0
38E0
30E0
70E0
70E0
70E0
70E0
70E0
70E0
70E0
70E0
70F0
ENDCHAR
STARTCHAR sha-sat-kaib
ENCODING 4665
SWIDTH 1333 0
DWIDTH 21 0
BBX 18 19 0 0
BITMAP
001E00
603E00
FFFE00
739F00
E38000
038000
07C000
0CC000
18E000
38E3C0
30FF80
70E7C0
70E3C0
70E000
70E000
70E000
71E000
71E000
388000
ENDCHAR
STARTCHAR sha-sat-salis
ENCODING 4666
SWIDTH 1333 0
DWIDTH 21 0
BBX 18 20 0 -1
BITMAP
001E00
603E00
FFFE00
739F00
E38000
038000
07C000
0CC000
18E000
38E000
30E000
70E000
70E000
70E000
70E000
70E000
71C180
71E780
39FF80
0007C0
ENDCHAR
STARTCHAR sha-sat-rabi
ENCODING 4667
SWIDTH 1200 0
DWIDTH 19 0
BBX 16 19 0 0
BITMAP
000E
603E
FFFE
739F
E780
8780
07C0
1CE0
38E0
30E0
70E0
70E0
70E0
70E0
78E0
00E0
01E0
01E0
01E0
ENDCHAR
STARTCHAR sha-sat-hamis
ENCODING 4668
SWIDTH 1266 0
DWIDTH 20 0
BBX 17 19 0 0
BITMAP
000700
601F00
FFFF00
73CF00
F3C000
83C000
07E000
0C7000
187000
387000
387000
707000
707000
707000
707F80
70F380
70F380
70F380
78FC00
ENDCHAR
STARTCHAR sha-sat-sadis
ENCODING 4669
SWIDTH 1200 0
DWIDTH 19 0
BBX 16 19 0 0
BITMAP
0002
000E
F87E
7FCF
79E0
E1F0
00FC
01CE
038E
038E
070E
070E
070E
070E
070E
070E
070E
070E
078E
ENDCHAR
STARTCHAR sha-sat-sabi
ENCODING 4670
SWIDTH 1200 0
DWIDTH 19 0
BBX 16 19 0 0
BITMAP
000E
601E
FFFE
739F
F380
8380
07C0
0CE0
18E0
38E0
30E0
70E0
70E0
70F0
7000
7000
7000
7000
3800
ENDCHAR
STARTCHAR sha-sat-zemede-rabi
ENCODING 4671
SWIDTH 1266 0
DWIDTH 20 0
BBX 17 21 0 -3
BITMAP
000600
E00E00
7FFE00
638600
838000
0FE000
1C7000
1C7000
1C7000
38F000
38F000
38F000
38F000
38F000
3CE000
00E000
00E000
1FFF80
1C0780
1C0380
380000
ENDCHAR
STARTCHAR qaf-geez
ENCODING 4672
SWIDTH 1133 0
DWIDTH 18 0
BBX 15 16 0 0
BITMAP
03E0
01E0
01E0
03C0
07FC
7BCE
E3CE
E3CE
E79C
FFF0
0780
0780
0780
0F00
0F00
0F80
ENDCHAR
STARTCHAR qaf-kaib
ENCODING 4673
SWIDTH 1133 0
DWIDTH 18 0
BBX 15 16 0 0
BITMAP
03E0
01E0
01E0
03C0
07FC
7BCE
E3CE
E3CE
E79C
FFF0
0786
079C
07FC
0F1E
0F00
0F80
ENDCHAR
STARTCHAR qaf-salis
ENCODING 4674
SWIDTH 1133 0
DWIDTH 18 0
BBX 15 17 0 -1
BITMAP
03E0
01E0
01E0
03C0
07FC
7BCE
E3CE
E3CE
E79C
FFF0
0780
0780
0780
0F04
0F9C
0FFC
001E
ENDCHAR
STARTCHAR qaf-rabi
ENCODING 4675
SWIDTH 1333 0
DWIDTH 21 0
BBX 18 17 0 -1
BITMAP
007800
007800
003800
003800
00FFC0
0739C0
0E39C0
0E3980
0F7F00
07B800
007800
007000
01E000
7F0000
780000
780000
F00000
ENDCHAR
STARTCHAR qaf-hamis
ENCODING 4676
SWIDTH 1133 0
DWIDTH 18 0
BBX 15 16 0 0
BITMAP
03E0
01E0
01E0
03C0
07FC
7BCE
E3CE
E3CE
E79C
FFF0
0780
07F8
07BC
0F1C
0F38
0FF0
ENDCHAR
STARTCHAR qaf-sadis
ENCODING 4677
SWIDTH 1133 0
DWIDTH 18 0
BBX 15 19 0 0
BITMAP
3C00
3C00
3C00
37E0
01E0
01E0
03C0
1FFE
73CE
E3CE
E38E
E79C
FFF0
0780
0780
0780
0F00
0F00
0F80
ENDCHAR
STARTCHAR qaf-sabi
ENCODING 4678
SWIDTH 1066 0
DWIDTH 17 0
BBX 14 17 0 0
BITMAP
03E0
0670
0E70
0E60
0FE0
07C0
07F8
0FBC
339C
E79C
E7B8
F7F0
7F00
0700
0700
0700
0780
ENDCHAR
STARTCHAR qaf-zemede-geez
ENCODING 4680
SWIDTH 1200 0
DWIDTH 19 0
BBX 16 17 0 0
BITMAP
0780
0780
0780
07B0
3FF8
77BC
E738
E738
E778
F7E0
7F00
0F3E
0FF7
0FE7
0EF7
0E7E
0F00
ENDCHAR
STARTCHAR qaf-zemede-salis
ENCODING 4682
SWIDTH 1733 0
DWIDTH 27 0
BBX 24 17 0 0
BITMAP
03C000
03C000
01C000
03C0B0
03FC70
1FDEF0
739FF0
F39EE0
F39CFF
F3F80F
7F8007
078001
078000
078000
078000
078000
07C000
ENDCHAR
STARTCHAR qaf-zemede-rabi
ENCODING 4683
SWIDTH 1066 0
DWIDTH 17 0
BBX 14 18 0 -2
BITMAP
0780
03C0
0380
0FF8
7BBC
739C
E39C
E7BC
F7B8
7FE0
0700
0700
0700
7FF0
70F0
70F0
00F0
0070
ENDCHAR
STARTCHAR qaf-zemede-hamis
ENCODING 4684
SWIDTH 1133 0
DWIDTH 18 0
BBX 15 19 0 -3
BITMAP
03C0
01E0
01C0
03FE
1DCE
39CE
39CE
39DC
3FF0
1FC0
03F8
03DC
039C
039C
03F8
7C00
7000
7000
E000
ENDCHAR
STARTCHAR qaf-zemede-kaib
ENCODING 4685
SWIDTH 1666 0
DWIDTH 26 0
BBX 23 17 0 0
BITMAP
078000
078000
038000
07B1E0
3FF8E0
77BDE0
E7BFFE
E7381C
E7381C
FFF00E
770000
0F0000
0F0000
0F0000
0F0000
0F0000
0F0000
ENDCHAR
STARTCHAR qha-qaf-geez
ENCODING 4688
SWIDTH 1200 0
DWIDTH 19 0
BBX 16 20 0 0
BITMAP
000E
701E
79FE
7FCF
71C0
01C0
01C0
07FE
3BDE
73CE
F38E
F39C
7FE0
3380
0780
0780
0780
0700
0780
0780
ENDCHAR
STARTCHAR qha-qaf-kaib
ENCODING 4689
SWIDTH 1133 0
DWIDTH 18 0
BBX 15 20 0 0
BITMAP
000C
001C
FFFC
F39E
F3C0
C3C0
0380
03FC
0F9E
339E
739C
F39C
F3F0
7F80
039C
07FC
079E
079C
0780
0780
ENDCHAR
STARTCHAR qha-qaf-salis
ENCODING 4690
SWIDTH 1200 0
DWIDTH 19 0
BBX 16 21 0 -2
BITMAP
000E
701E
7FFE
79CF
71C0
01C0
03C0
0FFE
3BDE
738E
F39C
F3F8
7F80
0780
0780
0780
0706
079C
07FC
001E
0008
ENDCHAR
STARTCHAR qha-qaf-rabi
ENCODING 4691
SWIDTH 1333 0
DWIDTH 21 0
BBX 18 21 0 -1
BITMAP
0000C0
0003C0
1E0FC0
0FF3C0
0E7800
1C3800
003800
003F80
03FBC0
0E39C0
0E39C0
0E7B80
0FFE00
007800
007800
007000
01C000
7E0000
700000
700000
E00000
ENDCHAR
STARTCHAR qha-qaf-hamis
ENCODING 4692
SWIDTH 1200 0
DWIDTH 19 0
BBX 16 19 0 0
BITMAP
000E
701E
7FFE
79CF
71C0
01C0
03C0
0FFE
73CE
738E
F39C
F3F8
7F80
0780
07F8
07BC
073C
0738
07F0
ENDCHAR
STARTCHAR qha-qaf-sadis
ENCODING 4693
SWIDTH 1333 0
DWIDTH 21 0
BBX 18 22 0 0
BITMAP
000700
E00F00
7BFF00
7F8700
738000
038000
03F800
003800
003800
003800
01FFC0
0F7BC0
0E71C0
1E7380
1E7780
1FF800
00F000
00F000
00F000
00E000
00F000
00F000
ENDCHAR
STARTCHAR qha-qaf-sabi
ENCODING 4694
SWIDTH 1333 0
DWIDTH 21 0
BBX 18 20 0 0
BITMAP
000180
200780
79FF80
7E03C0
79F000
633800
073800
073800
07F000
03C000
07FE00
3BDE00
73CE00
F38E00
F3BC00
7FC000
038000
078000
078000
07C000
ENDCHAR
STARTCHAR qha-qaf-zemede-geez
ENCODING 4696
SWIDTH 1200 0
DWIDTH 19 0
BBX 16 20 0 0
BITMAP
001C
E03C
F3FC
FF9E
E780
0780
07B0
3FF8
77BC
E738
E738
E778
F7E0
7F00
0F3E
0FF7
0FE7
0EF7
0E7E
0F00
ENDCHAR
STARTCHAR qha-qaf-zemede-salis
ENCODING 4698
SWIDTH 1733 0
DWIDTH 27 0
BBX 24 20 0 0
BITMAP
000E00
701E00
79FE00
7FCF00
73C000
01C000
03C0B0
03FC70
1FDEF0
739FF0
F39EE0
F39CFF
F3F80F
7F8007
078001
078000
078000
078000
078000
07C000
ENDCHAR
STARTCHAR qha-qaf-zemede-rabi
ENCODING 4699
SWIDTH 2133 0
DWIDTH 18 0
BBX 15 22 0 -2
BITMAP
001C
E03C
F3FC
FF9E
E380
0380
0380
0FF8
7BBC
739C
E39C
E7BC
F7B8
7FE0
0700
0700
0700
7FF0
70F0
70F0
00F0
0070
ENDCHAR
STARTCHAR qha-qaf-zemede-hamis
ENCODING 4700
SWIDTH 2266 0
DWIDTH 19 0
BBX 16 22 0 -3
BITMAP
000E
701E
79FE
7FCF
71C0
01C0
03FE
1DCE
39CE
39CE
39DC
3FF0
1FC0
03F8
03DC
039C
039C
03F8
7C00
7000
7000
E000
ENDCHAR
STARTCHAR qha-qaf-zemede-kaib
ENCODING 4701
SWIDTH 1666 0
DWIDTH 26 0
BBX 23 20 0 0
BITMAP
001C00
E03C00
F3FC00
FF9E00
E78000
038000
07B1E0
3FF8E0
77BDE0
E7BFFE
E7381C
E7381C
FFF00E
770000
0F0000
0F0000
0F0000
0F0000
0F0000
0F0000
ENDCHAR
STARTCHAR bet-geez
ENCODING 4704
SWIDTH 800 0
DWIDTH 13 0
BBX 10 16 0 0
BITMAP
0F80
3380
71C0
61C0
E1C0
E1C0
E1C0
E1C0
E1C0
E1C0
E1C0
E1C0
E1C0
E1C0
E1C0
F1C0
ENDCHAR
STARTCHAR bet-kaib
ENCODING 4705
SWIDTH 1266 0
DWIDTH 20 0
BBX 17 16 0 0
BITMAP
0F8000
338000
71C000
61C000
E1C000
E1C780
E1FF00
E1C780
E1C300
E1C000
E1C000
E1C000
E1C000
E1C000
E1C000
F1E000
ENDCHAR
STARTCHAR bet-salis
ENCODING 4706
SWIDTH 1266 0
DWIDTH 20 0
BBX 17 17 0 -1
BITMAP
0F8000
33C000
71C000
61C000
E1C000
E1C000
E1C000
E1C000
E1C000
E1C000
E1C000
E1C000
E1C000
E1C380
E1CF00
F1FF00
000F80
ENDCHAR
STARTCHAR bet-rabi
ENCODING 4707
SWIDTH 866 0
DWIDTH 14 0
BBX 11 16 0 0
BITMAP
0FC0
31C0
70E0
60E0
E0E0
E0E0
E0E0
E0E0
E0E0
E0E0
E0E0
F0E0
00E0
00E0
00E0
00E0
ENDCHAR
STARTCHAR bet-hamis
ENCODING 4708
SWIDTH 1200 0
DWIDTH 19 0
BBX 16 16 0 0
BITMAP
0FC0
31E0
70E0
60E0
E0E0
E0E0
E0E0
E0E0
E0E0
E0E0
E0E0
E0FE
E0E7
E0E7
E1E7
F0FE
ENDCHAR
STARTCHAR bet-sadis
ENCODING 4709
SWIDTH 1200 0
DWIDTH 19 0
BBX 16 16 0 0
BITMAP
003E
00CF
01C7
0187
0387
0787
FB87
F387
F387
E387
0387
0387
0387
0387
0387
03C7
ENDCHAR
STARTCHAR bet-sabi
ENCODING 4710
SWIDTH 866 0
DWIDTH 14 0
BBX 11 16 0 0
BITMAP
0FC0
31C0
70E0
60E0
E0E0
E0E0
E0E0
E0E0
E0E0
E0E0
E0E0
E0E0
E000
E000
E000
F000
ENDCHAR
STARTCHAR bet-zemede-rabi
ENCODING 4711
SWIDTH 1200 0
DWIDTH 19 0
BBX 16 18 0 -2
BITMAP
0780
1BC0
71C0
71E0
F1E0
E1E0
E1E0
E1E0
E1E0
F1E0
F1E0
69E0
01E0
01FF
1FCF
380F
3803
7000
ENDCHAR
STARTCHAR ve-bet-geez
ENCODING 4712
SWIDTH 1200 0
DWIDTH 19 0
BBX 16 18 0 0
BITMAP
000E
001E
FBFE
7C0F
7000
8040
07F0
0C70
1C38
1C38
3C38
3C38
3C38
3C78
3C78
3C78
3C78
1E38
ENDCHAR
STARTCHAR ve-bet-kaib
ENCODING 4713
SWIDTH 1400 0
DWIDTH 22 0
BBX 19 18 0 0
BITMAP
000E00
001E00
FBFE00
7C0E00
700000
804000
07F000
0C7000
1C7000
1C7800
3C79E0
3C7FE0
3C71E0
3C7080
3C7000
3C7000
3C7000
1C7800
ENDCHAR
STARTCHAR ve-bet-salis
ENCODING 4714
SWIDTH 1400 0
DWIDTH 22 0
BBX 19 19 0 -1
BITMAP
000E00
001E00
FBFE00
7C0E00
700000
804000
07F000
0C7000
1C7800
1C7800
3C7800
3C7800
3C7800
3C7800
3C7800
3C7860
3C79C0
1C7FC0
0001E0
ENDCHAR
STARTCHAR ve-bet-rabi
ENCODING 4715
SWIDTH 1200 0
DWIDTH 19 0
BBX 16 18 0 0
BITMAP
000E
001E
FBFE
7C0F
7000
8040
07F0
0C70
1C38
1C38
3C38
3C38
3C78
3C78
1078
0078
0078
0078
ENDCHAR
STARTCHAR ve-bet-hamis
ENCODING 4716
SWIDTH 1333 0
DWIDTH 21 0
BBX 18 18 0 0
BITMAP
000E00
001E00
FBFE00
7C0F00
700000
804000
07F000
0C7000
1C7800
1C3800
3C3800
3C7800
3C7800
3C7F80
3C7BC0
3C71C0
3C7BC0
1C7F80
ENDCHAR
STARTCHAR ve-bet-sadis
ENCODING 4717
SWIDTH 1400 0
DWIDTH 22 0
BBX 19 18 0 0
BITMAP
0001C0
0003C0
0F7FC0
0F81E0
0F0000
000800
00FE00
01CF00
038700
038700
038700
FF8700
F78700
778700
E78700
038700
038F00
03C780
ENDCHAR
STARTCHAR ve-bet-sabi
ENCODING 4718
SWIDTH 1200 0
DWIDTH 19 0
BBX 16 18 0 0
BITMAP
000E
001E
FBFE
7C0F
7000
8040
07F0
0C70
1C38
1C38
3C38
3C38
3C38
3C3C
3C00
3C00
3C00
1E00
ENDCHAR
STARTCHAR ve-bet-zemede-rabi
ENCODING 4719
SWIDTH 1266 0
DWIDTH 20 0
BBX 17 22 0 -4
BITMAP
000E00
001E00
FBFE00
7C0F00
700000
804000
03C000
0DE000
38E000
78F000
78F000
70F000
70F000
78F000
78F000
34F000
00F000
00FF80
0FE780
1C0780
1C0180
380000
ENDCHAR
STARTCHAR taw-geez
ENCODING 4720
SWIDTH 1200 0
DWIDTH 19 0
BBX 16 16 0 0
BITMAP
03E0
01E0
01E0
01C0
01C0
0FFF
71C7
71C7
E3C0
C3C0
0380
0380
0380
0380
0380
03C0
ENDCHAR
STARTCHAR taw-kaib
ENCODING 4721
SWIDTH 1200 0
DWIDTH 19 0
BBX 16 16 0 0
BITMAP
03E0
01E0
01E0
01C0
01C0
0FFF
71C7
71C7
E3C0
C3C2
03CE
03FE
038F
0380
0380
03C0
ENDCHAR
STARTCHAR taw-salis
ENCODING 4722
SWIDTH 1200 0
DWIDTH 19 0
BBX 16 18 0 -2
BITMAP
03E0
01E0
01E0
01C0
01C0
0FFF
71C7
71C7
E3C0
C3C0
03C0
0380
0380
0386
039E
03FE
001E
000C
ENDCHAR
STARTCHAR taw-rabi
ENCODING 4723
SWIDTH 1400 0
DWIDTH 22 0
BBX 19 18 0 -2
BITMAP
007000
007800
007800
007800
007800
00FFE0
1F79E0
1E79E0
1C7800
187000
007000
00F000
01C000
7F0000
700000
700000
700000
E00000
ENDCHAR
STARTCHAR taw-hamis
ENCODING 4724
SWIDTH 1200 0
DWIDTH 19 0
BBX 16 16 0 0
BITMAP
03E0
01E0
01E0
01C0
01C0
0FFF
71C7
71C7
E3C0
C3C0
03C0
03FC
039E
039C
03FC
0380
ENDCHAR
STARTCHAR taw-sadis
ENCODING 4725
SWIDTH 1200 0
DWIDTH 19 0
BBX 16 18 0 0
BITMAP
1E00
1E00
1FE0
01E0
01E0
01C0
01C0
0FFF
71C7
71C7
E3C0
C3C0
0380
0380
0380
0380
0380
03C0
ENDCHAR
STARTCHAR taw-sabi
ENCODING 4726
SWIDTH 1200 0
DWIDTH 19 0
BBX 16 16 0 0
BITMAP
01F0
0338
0738
0738
07F0
03C0
0FC7
71FF
73CF
F3C7
0380
0380
0380
0380
0380
03C0
ENDCHAR
STARTCHAR taw-bet-zemede-rabi
ENCODING 4727
SWIDTH 1266 0
DWIDTH 20 0
BBX 17 18 0 -2
BITMAP
01E000
01E000
00E000
01E080
1FFF80
79E780
71C380
E1C000
01C000
01C000
01C000
03C000
03C000
03FE00
7E0E00
700E00
700300
C00000
ENDCHAR
STARTCHAR cha-taw-geez
ENCODING 4728
SWIDTH 1200 0
DWIDTH 19 0
BBX 16 18 0 0
BITMAP
0007
780F
3DFF
3FCF
79C0
01C0
01C0
0FFF
73CF
738F
E382
0380
0380
0780
0780
0780
0780
0780
ENDCHAR
STARTCHAR cha-taw-kaib
ENCODING 4729
SWIDTH 1200 0
DWIDTH 19 0
BBX 16 18 0 0
BITMAP
0007
780F
3DFF
3FCF
79C0
01C0
01C0
0FFF
73CF
738F
E382
0380
038E
079C
07FE
079E
0780
0780
ENDCHAR
STARTCHAR cha-taw-salis
ENCODING 4730
SWIDTH 1200 0
DWIDTH 19 0
BBX 16 19 0 -1
BITMAP
0007
780F
3DFF
3FCF
79C0
01C0
01C0
0FFF
73CF
738F
E382
0380
0380
0780
0780
078E
079E
07FE
000F
ENDCHAR
STARTCHAR cha-taw-rabi
ENCODING 4731
SWIDTH 1333 0
DWIDTH 21 0
BBX 18 20 0 -2
BITMAP
000380
3C0780
1E7F80
1FF3C0
1CF000
20E000
00E000
01FF80
3EE780
39E380
39E3C0
61E000
01C000
01C000
038000
0E0000
700000
700000
700000
E00000
ENDCHAR
STARTCHAR cha-taw-hamis
ENCODING 4732
SWIDTH 1200 0
DWIDTH 19 0
BBX 16 18 0 0
BITMAP
0007
780F
3DFF
3FCF
79C0
01C0
01C0
0FFF
73CF
738F
E382
0380
0380
07FC
079C
079C
07F8
0780
ENDCHAR
STARTCHAR cha-taw-sadis
ENCODING 4733
SWIDTH 1266 0
DWIDTH 20 0
BBX 17 20 0 0
BITMAP
601C00
F03C00
FFFC00
E79800
070000
07F000
00E000
00E000
00E000
07FF80
3CE780
3DE380
39E000
01C000
01C000
01C000
01C000
01C000
03C000
01E000
ENDCHAR
STARTCHAR cha-taw-sabi
ENCODING 4734
SWIDTH 1266 0
DWIDTH 20 0
BBX 17 20 0 0
BITMAP
000780
1C0780
1E0700
1E7800
1FF800
073800
073800
077000
07E000
038000
7FFE00
738E00
738E00
E38700
038000
038000
038000
038000
078000
03C000
ENDCHAR
STARTCHAR cha-taw-bet-zemede-rabi
ENCODING 4735
SWIDTH 1333 0
DWIDTH 21 0
BBX 18 19 0 -1
BITMAP
3001C0
1C0780
1FFB80
1C71C0
00F000
00F000
03FF80
3CE780
3CE380
38E000
00E000
01E000
01E000
01C000
01C000
7FFF00
780F00
700700
E00000
ENDCHAR
STARTCHAR harm-geez
ENCODING 4736
SWIDTH 1066 0
DWIDTH 17 0
BBX 14 16 0 0
BITMAP
01E0
00E0
00E0
0FE0
78E0
781C
701C
803C
003C
003C
003C
0038
0038
0038
0078
003C
ENDCHAR
STARTCHAR harm-kaib
ENCODING 4737
SWIDTH 1466 0
DWIDTH 23 0
BBX 20 16 0 0
BITMAP
01E000
00E000
00E000
0FE000
78E000
781C00
701C00
803C10
003FF0
003CF0
003CF0
003830
003800
003800
007800
003C00
ENDCHAR
STARTCHAR harm-salis
ENCODING 4738
SWIDTH 1266 0
DWIDTH 20 0
BBX 17 17 0 -1
BITMAP
01E000
00E000
00E000
0FC000
79C000
783C00
F03C00
003800
007800
007800
007000
00F000
00F000
00E380
01E700
00FF00
000780
ENDCHAR
STARTCHAR harm-rabi
ENCODING 4739
SWIDTH 2000 0
DWIDTH 17 0
BBX 14 17 0 -1
BITMAP
01E0
00E0
00E0
0FE0
39E0
381C
701C
001C
001C
003C
0038
0070
07C0
7800
7000
7000
F000
ENDCHAR
STARTCHAR harm-hamis
ENCODING 4740
SWIDTH 1333 0
DWIDTH 21 0
BBX 18 16 0 0
BITMAP
01E000
00E000
00E000
0FE000
79E000
783C00
F03C00
003C00
003800
003800
003800
007FC0
0079C0
0079C0
007BC0
007F00
ENDCHAR
STARTCHAR harm-sadis
ENCODING 4741
SWIDTH 933 0
DWIDTH 15 0
BBX 12 16 0 0
BITMAP
0780
0380
0F80
3B80
7380
F070
F070
8070
00F0
00F0
00F0
00E0
00E0
00E0
00E0
00F0
ENDCHAR
STARTCHAR harm-sabi
ENCODING 4742
SWIDTH 1466 0
DWIDTH 23 0
BBX 20 16 0 0
BITMAP
0007F0
007E70
00CE70
018EF0
BF8FC0
738000
738000
E38000
03FC00
001C00
003C00
003C00
003C00
003C00
003C00
003C00
ENDCHAR
STARTCHAR harm-zemede-geez
ENCODING 4744
SWIDTH 1600 0
DWIDTH 25 0
BBX 22 15 0 0
BITMAP
03C000
01C000
01C000
7FC000
7BC000
F03800
C039F8
007FDC
00739C
00739C
00F3F8
00F000
00E000
00E000
00F000
ENDCHAR
STARTCHAR harm-zemede-salis
ENCODING 4746
SWIDTH 1600 0
DWIDTH 25 0
BBX 22 15 0 0
BITMAP
078000
038000
038000
7F8000
778180
7073C0
C07380
00FF80
00F780
00E7FC
00E038
01E038
01C01C
01C000
01E000
ENDCHAR
STARTCHAR harm-zemede-rabi
ENCODING 4747
SWIDTH 1066 0
DWIDTH 17 0
BBX 14 17 0 -2
BITMAP
0780
0380
0380
7F80
77F0
6070
C0F0
00F0
00E0
00E0
01E0
1FF8
701C
701C
F01C
003C
003C
ENDCHAR
STARTCHAR harm-zemede-hamis
ENCODING 4748
SWIDTH 1200 0
DWIDTH 19 0
BBX 16 17 0 -2
BITMAP
03C0
03C0
03C0
7FC0
73D8
7378
E078
0078
0070
007F
00F7
00F3
00F7
1F8A
1C00
3C00
3800
ENDCHAR
STARTCHAR harm-zemede-kaib
ENCODING 4749
SWIDTH 1533 0
DWIDTH 24 0
BBX 21 15 0 0
BITMAP
078000
038000
038000
7F8000
778000
707000
C073C0
00F380
00FFF8
00E070
00E078
01E000
01C000
01C000
01E000
ENDCHAR
STARTCHAR nehas-geez
ENCODING 4752
SWIDTH 733 0
DWIDTH 12 0
BBX 9 16 0 0
BITMAP
F800
7800
7800
7800
7100
7F80
0780
0F80
0F00
0F00
0F00
1E00
1E00
1E00
3E00
1E00
ENDCHAR
STARTCHAR nehas-kaib
ENCODING 4753
SWIDTH 1000 0
DWIDTH 16 0
BBX 13 16 0 0
BITMAP
F000
7000
7000
7000
7100
7F00
0700
0F08
0FF0
0E70
1E78
1E00
1E00
3C00
3C00
3E00
ENDCHAR
STARTCHAR nehas-salis
ENCODING 4754
SWIDTH 800 0
DWIDTH 13 0
BBX 10 18 0 -2
BITMAP
F000
7000
7000
F000
F700
FF00
0F00
0E00
1E00
1E00
3C00
3C00
7800
7800
7380
7F80
0380
03C0
ENDCHAR
STARTCHAR nehas-rabi
ENCODING 4755
SWIDTH 1000 0
DWIDTH 16 0
BBX 13 16 0 0
BITMAP
07F8
3CF0
7870
7038
F000
F000
F000
F000
FF80
0380
0380
0380
0380
0780
0780
0780
ENDCHAR
STARTCHAR nehas-hamis
ENCODING 4756
SWIDTH 800 0
DWIDTH 13 0
BBX 10 16 0 0
BITMAP
7000
7000
7000
7000
7300
FF00
0E00
1E00
1C00
3C00
3800
7FC0
73C0
F3C0
F380
FE00
ENDCHAR
STARTCHAR nehas-sadis
ENCODING 4757
SWIDTH 1000 0
DWIDTH 16 0
BBX 13 16 0 0
BITMAP
BFC0
79E0
71E0
F3C0
C3C0
0788
0078
00F0
00F0
01E0
01E0
03C0
03C0
0780
0780
0780
ENDCHAR
STARTCHAR nehas-sabi
ENCODING 4758
SWIDTH 1066 0
DWIDTH 17 0
BBX 14 17 0 0
BITMAP
00F8
1F9C
339C
739C
73F8
F180
F000
F000
F100
7F80
0380
0380
0780
0780
0780
0780
0780
ENDCHAR
STARTCHAR neHes-zemede-rabi
ENCODING 4759
SWIDTH 1000 0
DWIDTH 16 0
BBX 13 17 0 -1
BITMAP
03F8
1C78
3870
3818
7800
7000
7000
7800
3FC0
0380
0380
0380
0780
07F8
7E78
7038
F018
ENDCHAR
STARTCHAR nye-nehas-geez
ENCODING 4760
SWIDTH 1266 0
DWIDTH 20 0
BBX 17 17 0 0
BITMAP
800700
780F00
7FFF00
F1C080
03C000
03C000
038800
03F800
007800
007800
007000
00F000
00E000
01E000
01E000
01C000
01E000
ENDCHAR
STARTCHAR nye-nehas-kaib
ENCODING 4761
SWIDTH 1333 0
DWIDTH 21 0
BBX 18 17 0 0
BITMAP
A00F00
780F00
7FFF00
F3C000
038000
038000
039000
03F800
007800
007FC0
00F3C0
00E1C0
00E000
01E000
01C000
03C000
03C000
ENDCHAR
STARTCHAR nye-nehas-salis
ENCODING 4762
SWIDTH 1200 0
DWIDTH 19 0
BBX 16 18 0 -1
BITMAP
A00F
780F
7FFF
F3C0
0380
0380
0390
03F8
0078
0070
00F0
00E0
00E0
01E0
01C7
03FE
03CF
0007
ENDCHAR
STARTCHAR nye-nehas-rabi
ENCODING 4763
SWIDTH 1200 0
DWIDTH 19 0
BBX 16 19 0 0
BITMAP
700E
783E
7FDE
73CF
8380
0FFC
1C3C
383C
781E
7800
7880
3FC0
01C0
03C0
03C0
0380
0380
0780
03C0
ENDCHAR
STARTCHAR nye-nehas-hamis
ENCODING 4764
SWIDTH 1266 0
DWIDTH 20 0
BBX 17 17 0 0
BITMAP
000700
780F00
7FFF00
7BC780
E3C000
03C000
039C00
03FC00
003C00
007800
007800
00F000
00F400
01FE00
01EE00
01CE00
03F800
ENDCHAR
STARTCHAR nye-nehas-sadis
ENCODING 4765
SWIDTH 1200 0
DWIDTH 19 0
BBX 16 20 0 0
BITMAP
000E
701E
781F
7FE0
83C0
03F0
07F0
7CF0
38E0
70E0
01EE
019E
001C
003C
003C
003C
0078
0078
0078
0078
ENDCHAR
STARTCHAR nye-nehas-sabi
ENCODING 4766
SWIDTH 1333 0
DWIDTH 21 0
BBX 18 19 0 0
BITMAP
000700
F00E00
7FFE00
738F00
638000
07FF80
1E3BC0
1C7BC0
3C7F80
3C3000
3C0000
3FE000
01E000
01E000
01C000
01C000
01C000
03C000
01E000
ENDCHAR
STARTCHAR nye-neHes-zemede-rabi
ENCODING 4767
SWIDTH 1066 0
DWIDTH 17 0
BBX 14 20 0 -1
BITMAP
0038
7038
7FF8
F700
07E0
18E0
70E0
7070
F000
F080
F380
FFC0
7BC0
2380
0380
0380
3FFC
383C
381C
7000
ENDCHAR
STARTCHAR alef-geez
ENCODING 4768
SWIDTH 1000 0
DWIDTH 16 0
BBX 13 17 0 0
BITMAP
7800
3800
3800
3800
3B80
3F00
0E00
1C00
3FE0
3BE0
78E0
70F0
70F0
E0F0
E070
E070
F078
ENDCHAR
STARTCHAR alef-kaib
ENCODING 4769
SWIDTH 1400 0
DWIDTH 22 0
BBX 19 17 0 0
BITMAP
780000
380000
380000
380000
3B8000
3F0000
0E0000
1C0000
3FE000
3BE000
78EFC0
70F3C0
70F1C0
E0F0E0
E07000
E07000
F07800
ENDCHAR
STARTCHAR alef-salis
ENCODING 4770
SWIDTH 1400 0
DWIDTH 22 0
BBX 19 18 0 -1
BITMAP
780000
380000
380000
380000
3B8000
3F0000
0E0000
1C0000
3FE000
3BE000
78E000
70F000
70F000
E0F000
E070E0
E073C0
F07FC0
0001E0
ENDCHAR
STARTCHAR alef-rabi
ENCODING 4771
SWIDTH 1066 0
DWIDTH 17 0
BBX 14 16 0 0
BITMAP
7800
3800
3800
3800
3F80
2F00
1E00
3DE0
3FF0
78F0
7070
F078
E078
F078
4078
003C
ENDCHAR
STARTCHAR alef-hamis
ENCODING 4772
SWIDTH 1266 0
DWIDTH 20 0
BBX 17 15 0 0
BITMAP
780000
780000
380000
380000
3F0000
2E0000
1C0000
3FC000
3BE000
71E000
70FF80
E0F380
E0F380
E0F300
F0FC00
ENDCHAR
STARTCHAR alef-sadis
ENCODING 4773
SWIDTH 1000 0
DWIDTH 16 0
BBX 13 16 0 0
BITMAP
F000
F000
FE00
1C00
3C00
3F00
0E00
1C00
3FC0
3BE0
71E0
70E0
E0F0
E0F0
E0F0
F078
ENDCHAR
STARTCHAR alef-sabi
ENCODING 4774
SWIDTH 1000 0
DWIDTH 16 0
BBX 13 16 0 0
BITMAP
3800
3800
3C00
3C00
3F80
3700
0E00
1C80
1FE0
38F0
78F0
70F0
70F0
E078
E000
F000
ENDCHAR
STARTCHAR alef-zemede-geez
ENCODING 4775
SWIDTH 1200 0
DWIDTH 19 0
BBX 16 20 0 0
BITMAP
F00E
701C
7FFC
838E
0380
0380
0380
0390
03E0
01C0
03C0
03FC
073C
0F1E
0E0E
1E0E
1E0E
1C0E
3C0E
1E0F
ENDCHAR
STARTCHAR kaf-geez
ENCODING 4776
SWIDTH 1000 0
DWIDTH 16 0
BBX 13 17 0 0
BITMAP
F000
7000
7000
7000
77F0
7C78
3838
3038
7038
7038
7038
7038
7038
7038
7038
7038
7838
ENDCHAR
STARTCHAR kaf-kaib
ENCODING 4777
SWIDTH 1333 0
DWIDTH 21 0
BBX 18 17 0 0
BITMAP
F00000
700000
700000
700000
77E000
787000
387000
307000
7073C0
707FC0
7073C0
707000
707000
707000
707000
707000
787800
ENDCHAR
STARTCHAR kaf-salis
ENCODING 4778
SWIDTH 2666 0
DWIDTH 22 0
BBX 19 18 0 -1
BITMAP
F00000
700000
700000
700000
77E000
787000
387000
307000
707000
707000
707000
707000
707000
707000
7071E0
7073C0
787FC0
0003E0
ENDCHAR
STARTCHAR kaf-rabi
ENCODING 4779
SWIDTH 933 0
DWIDTH 15 0
BBX 12 17 0 0
BITMAP
F000
F000
F000
F000
F7E0
F870
3870
3070
7070
7070
7070
7070
7870
0070
0070
0070
0070
ENDCHAR
STARTCHAR kaf-hamis
ENCODING 4780
SWIDTH 1333 0
DWIDTH 21 0
BBX 18 17 0 0
BITMAP
700000
F00000
F00000
F00000
F3E000
FE7000
5C3800
1C3800
1C3800
383800
383800
383800
387F80
3871C0
3871C0
3873C0
1C7F80
ENDCHAR
STARTCHAR kaf-sadis
ENCODING 4781
SWIDTH 1066 0
DWIDTH 17 0
BBX 14 17 0 0
BITMAP
F000
7000
7000
7000
73F8
7E3C
3C1C
381C
781C
1C1C
3C3C
383C
7838
7838
7038
7038
783C
ENDCHAR
STARTCHAR kaf-sabi
ENCODING 4782
SWIDTH 933 0
DWIDTH 15 0
BBX 12 17 0 0
BITMAP
7000
F000
F000
F000
F7E0
FCF0
3870
3870
7870
7070
7070
7070
7070
7000
7000
7000
7800
ENDCHAR
STARTCHAR kaf-zemede-geez
ENCODING 4784
SWIDTH 1466 0
DWIDTH 23 0
BBX 20 17 0 0
BITMAP
700000
F00000
F00000
F00000
F30000
FDC000
B8E000
38E000
70FFE0
70EE70
70EE70
71EE70
71E7E0
71E000
71E000
71E000
78F000
ENDCHAR
STARTCHAR kaf-zemede-salis
ENCODING 4786
SWIDTH 1533 0
DWIDTH 24 0
BBX 21 16 0 0
BITMAP
700000
F00000
F00000
F00000
FFC000
F9C100
31E780
71E700
71FF00
71E700
71EFF0
71E078
71E038
71C000
71E000
79E000
ENDCHAR
STARTCHAR kaf-zemede-rabi
ENCODING 4787
SWIDTH 1200 0
DWIDTH 19 0
BBX 16 17 0 -1
BITMAP
7000
F000
7000
7000
77C0
F8E0
38F0
38F0
78F0
78F0
78F0
00F8
0F0E
0E0F
0C0F
100F
000F
ENDCHAR
STARTCHAR kaf-zemede-hamis
ENCODING 4788
SWIDTH 1200 0
DWIDTH 19 0
BBX 16 20 0 -4
BITMAP
F000
F000
F000
F000
F7C0
FCE0
38E0
38E0
38F0
78E0
78E0
78FE
78EF
38E7
20E7
01FE
0E00
0E00
0E00
1C00
ENDCHAR
STARTCHAR kaf-zemede-kaib
ENCODING 4789
SWIDTH 1333 0
DWIDTH 21 0
BBX 18 14 0 0
BITMAP
700000
F03C00
F03800
F7BFC0
FDE3C0
38E3C0
38E080
70E000
70E000
70E000
70E000
70E000
78E000
78F000
ENDCHAR
STARTCHAR kha-kaf-geez
ENCODING 4792
SWIDTH 1266 0
DWIDTH 20 0
BBX 17 19 0 0
BITMAP
000F00
F01E00
7FFF00
7BCE00
73C000
83C000
03FF00
03F380
00E380
00E380
01C380
01C380
01C780
03C780
03C780
03C700
03C700
03C700
01C780
ENDCHAR
STARTCHAR kha-kaf-kaib
ENCODING 4793
SWIDTH 1600 0
DWIDTH 25 0
BBX 22 19 0 0
BITMAP
000E00
F01E00
7FFE00
7BCF00
73C000
83C000
03FF00
03E780
00E780
00E7BC
01C7FC
01C73C
01C708
03C700
03C700
03C700
03C700
03C700
01C780
ENDCHAR
STARTCHAR kha-kaf-salis
ENCODING 4794
SWIDTH 1666 0
DWIDTH 26 0
BBX 23 20 0 -1
BITMAP
000F00
F01F00
7FFF00
7BCE00
73C000
83C000
03FF00
03F380
00E380
00E380
01E380
01C380
01C380
01C780
03C780
03C780
03C78E
01C79C
01E7FC
00001E
ENDCHAR
STARTCHAR kha-kaf-rabi
ENCODING 4795
SWIDTH 1266 0
DWIDTH 20 0
BBX 17 19 0 0
BITMAP
000F00
F01E00
7FFF00
7BCE00
73C000
83C000
03FF00
03F380
00E380
00E380
01C380
01C380
01C780
01C780
01E780
000700
000700
000700
000780
ENDCHAR
STARTCHAR kha-kaf-hamis
ENCODING 4796
SWIDTH 1533 0
DWIDTH 24 0
BBX 21 19 0 0
BITMAP
000E00
F01E00
7FFE00
7BCF00
73C000
83C000
03BF00
03E780
00E780
01C780
01C780
01C700
01C700
03C700
03C7F8
03C738
03C738
03C770
01C7E0
ENDCHAR
STARTCHAR kha-kaf-sadis
ENCODING 4797
SWIDTH 1400 0
DWIDTH 22 0
BBX 19 18 0 0
BITMAP
000F00
F81E00
7FFF00
79C400
F1C000
03C300
03FDC0
0070E0
00E0E0
01E0E0
0071E0
00F1E0
00E1E0
00E1E0
01E1C0
01C1C0
01C1C0
01E1E0
ENDCHAR
STARTCHAR kha-kaf-sabi
ENCODING 4798
SWIDTH 1266 0
DWIDTH 20 0
BBX 17 19 0 0
BITMAP
000E00
F01E00
7FFE00
7BCF00
73C000
83C000
03FF00
03E780
00E780
00E780
01C780
01C700
01C700
03C780
03C400
03C000
03C000
03C000
01C000
ENDCHAR
STARTCHAR kha-kaf-zemede-geez
ENCODING 4800
SWIDTH 1866 0
DWIDTH 29 0
BBX 26 19 0 0
BITMAP
00060000
001E0000
F8FE0000
7FCF0000
73C00000
E3C00000
03DF0000
03F38000
00E38000
00E38400
01E3FFC0
01E39DC0
01E3BDC0
01C3BDC0
01C39F80
01C78000
01C78000
01C78000
01E30000
ENDCHAR
STARTCHAR kha-kaf-zemede-salis
ENCODING 4802
SWIDTH 1933 0
DWIDTH 30 0
BBX 27 19 0 0
BITMAP
000E0000
001E0000
F8FE0000
7FDE0000
73800000
E3800000
039F0000
03F30000
00E3BE00
00E39E00
01E39C00
01C7FC00
01C7BFC0
01C781E0
01C781E0
01C780E0
01C70000
01C70000
01E78000
ENDCHAR
STARTCHAR kha-kaf-zemede-rabi
ENCODING 4803
SWIDTH 1533 0
DWIDTH 24 0
BBX 21 24 0 -4
BITMAP
000200
000E00
F03E00
7FDF00
7BC000
F3C000
03CE00
03F380
036380
00E380
00E380
01E380
01C380
01C380
01C380
01C780
01C780
01E7A0
0007F0
001870
006070
00E078
00E000
00C000
ENDCHAR
STARTCHAR kha-kaf-zemede-hamis
ENCODING 4804
SWIDTH 1600 0
DWIDTH 25 0
BBX 22 24 0 -4
BITMAP
000600
001E00
F8FE00
7FCF00
73C000
E3C000
03DF00
03F380
00E380
00E380
01E380
01E380
01E380
01C380
01C3FC
01C39C
01C79C
01E7B8
0007C0
001800
006000
00F000
00E000
00C000
ENDCHAR
STARTCHAR kha-kaf-zemede-kaib
ENCODING 4805
SWIDTH 1800 0
DWIDTH 28 0
BBX 25 19 0 0
BITMAP
00060000
001E0000
F8FE0000
7FCF0000
73C07800
E3C07800
03DF7800
03F3FF80
00E38780
00E38780
01E38180
01E38000
01C38000
01C38000
01C78000
01C78000
01C78000
01C78000
01E70000
ENDCHAR
STARTCHAR wewe-geez
ENCODING 4808
SWIDTH 933 0
DWIDTH 15 0
BBX 12 14 0 0
BITMAP
03E0
1CF0
38F0
7870
78F0
70F0
70F0
F0F0
F0E0
F0E0
F1E0
F1C0
7F80
7800
ENDCHAR
STARTCHAR wewe-kaib
ENCODING 4809
SWIDTH 1333 0
DWIDTH 21 0
BBX 18 14 0 0
BITMAP
03E000
1CF000
38F000
787000
78F000
70FFC0
70F380
F0F3C0
F0E1C0
F0E000
F1E000
F1C000
7F8000
780000
ENDCHAR
STARTCHAR wewe-salis
ENCODING 4810
SWIDTH 1333 0
DWIDTH 21 0
BBX 18 16 0 -1
BITMAP
0FC000
39C000
71C000
71C000
F1C000
F3C000
F3C800
7E3800
007800
007800
007000
00F000
00F1C0
00F380
01FF80
0003C0
ENDCHAR
STARTCHAR wewe-rabi
ENCODING 4811
SWIDTH 1000 0
DWIDTH 16 0
BBX 13 16 0 0
BITMAP
0FC0
39C0
79E0
71C0
F1C0
F1C0
F3C0
7F78
0078
0078
0070
00F0
00E0
01E0
01E0
01F0
ENDCHAR
STARTCHAR wewe-hamis
ENCODING 4812
SWIDTH 1200 0
DWIDTH 19 0
BBX 16 16 0 0
BITMAP
0F80
39C0
71C0
71C0
F1C0
F3C0
F380
7F78
0078
0070
00F0
00FF
00E7
01E7
01EE
01F0
ENDCHAR
STARTCHAR wewe-sadis
ENCODING 4813
SWIDTH 800 0
DWIDTH 13 0
BBX 10 16 0 0
BITMAP
0E00
0E00
0E00
0E00
0E00
1B80
31C0
71C0
71C0
F1C0
F1C0
E3C0
E380
F300
FE00
7000
ENDCHAR
STARTCHAR wewe-sabi
ENCODING 4814
SWIDTH 933 0
DWIDTH 15 0
BBX 12 16 0 0
BITMAP
00F0
07F0
0E70
0E70
1E70
1E70
0EE0
0FC0
0E00
1C00
3800
3000
7000
F000
F000
F000
ENDCHAR
STARTCHAR ayin-geez
ENCODING 4816
SWIDTH 1200 0
DWIDTH 19 0
BBX 16 12 0 0
BITMAP
03FE
1DCF
39CF
79C7
71C7
F3CF
F3CF
F3CF
F38E
F3DE
F7F8
7800
ENDCHAR
STARTCHAR ayin-kaib
ENCODING 4817
SWIDTH 1466 0
DWIDTH 23 0
BBX 20 13 0 0
BITMAP
03FE00
1DDE00
39CE00
79CF00
73CF00
F3CF00
F38E00
F38E00
E38E00
F39CF0
F7FFE0
7800F0
0000F0
ENDCHAR
STARTCHAR ayin-salis
ENCODING 4818
SWIDTH 1133 0
DWIDTH 18 0
BBX 15 17 0 -1
BITMAP
00F8
1F9C
739E
739E
F39E
F39C
F39C
FFF0
7B80
0780
0780
0780
0780
070C
073C
07FC
003E
ENDCHAR
STARTCHAR ayin-rabi
ENCODING 4819
SWIDTH 1066 0
DWIDTH 17 0
BBX 14 16 0 0
BITMAP
00F8
1FB8
739C
739C
F7BC
E7BC
E738
FFE0
7700
0700
0700
0700
0700
0700
0700
0700
ENDCHAR
STARTCHAR ayin-hamis
ENCODING 4820
SWIDTH 1066 0
DWIDTH 17 0
BBX 14 16 0 0
BITMAP
00F8
1FB8
739C
739C
F7BC
E7BC
E738
FFE0
7700
0700
0770
07F8
073C
0738
0778
07C0
ENDCHAR
STARTCHAR ayin-sadis
ENCODING 4821
SWIDTH 1600 0
DWIDTH 25 0
BBX 22 12 0 0
BITMAP
03FE00
1DEF00
39C700
79C71C
71C7FC
F3C73C
F3CF3C
F3CF00
F3CE00
F3CE00
F7F800
780000
ENDCHAR
STARTCHAR ayin-sabi
ENCODING 4822
SWIDTH 1200 0
DWIDTH 19 0
BBX 16 16 0 0
BITMAP
00FE
0FCF
39C7
39C7
79C7
71CF
71CE
79FC
3FC0
0700
0E00
1C00
3800
7000
F000
F000
ENDCHAR
STARTCHAR zey-geez
ENCODING 4824
SWIDTH 800 0
DWIDTH 13 0
BBX 10 15 0 0
BITMAP
03C0
F1C0
71C0
71C0
73C0
7FC0
73C0
7380
7380
F380
F380
E380
E380
E380
F300
ENDCHAR
STARTCHAR zey-kaib
ENCODING 4825
SWIDTH 1266 0
DWIDTH 20 0
BBX 17 15 0 0
BITMAP
03C000
F1C000
79C000
71C000
71C780
77FF00
79C780
71C300
73C000
F3C000
F3C000
F38000
E38000
E38000
F34000
ENDCHAR
STARTCHAR zey-salis
ENCODING 4826
SWIDTH 2266 0
DWIDTH 19 0
BBX 16 16 0 -1
BITMAP
03C0
F1E0
79E0
71C0
73C0
7DC0
71C0
71C0
73C0
F3C0
F3C0
F3C0
F38F
E3FE
F30F
000F
ENDCHAR
STARTCHAR zey-rabi
ENCODING 4827
SWIDTH 800 0
DWIDTH 13 0
BBX 10 15 0 0
BITMAP
01C0
F3C0
71C0
73C0
73C0
FFC0
F3C0
F380
E380
E380
F380
0380
0380
0780
0380
ENDCHAR
STARTCHAR zey-hamis
ENCODING 4828
SWIDTH 1133 0
DWIDTH 18 0
BBX 15 15 0 0
BITMAP
00F0
F0F0
78F0
78F0
71F0
7EE0
70E0
70E0
70E0
F1E0
F1FE
F1EE
F1EE
F1FC
F1E8
ENDCHAR
STARTCHAR zey-sadis
ENCODING 4829
SWIDTH 1133 0
DWIDTH 18 0
BBX 15 15 0 0
BITMAP
001E
0E0E
770E
739E
E3BE
07DE
079E
079C
079C
071C
071C
071C
071C
073C
071C
ENDCHAR
STARTCHAR zey-sabi
ENCODING 4830
SWIDTH 800 0
DWIDTH 13 0
BBX 10 15 0 0
BITMAP
03C0
F1C0
71C0
71C0
73C0
7FC0
73C0
7380
7380
F380
F3C0
E000
E000
E000
F000
ENDCHAR
STARTCHAR zey-zemede-rabi
ENCODING 4831
SWIDTH 2133 0
DWIDTH 18 0
BBX 15 18 0 -3
BITMAP
01E0
78E0
38E0
38E0
39E0
79E0
7FE0
79E0
71C0
71C0
71C0
79C0
01C0
03C0
7FFE
781E
700E
E000
ENDCHAR
STARTCHAR zhe-zey-geez
ENCODING 4832
SWIDTH 1666 0
DWIDTH 26 0
BBX 23 15 0 0
BITMAP
00007C
7F83BC
79C73C
79C71E
E1C700
01FF00
01C700
01C700
01CF00
01CF00
01CE00
03CE00
03CE00
038E00
03CF00
ENDCHAR
STARTCHAR zhe-zey-kaib
ENCODING 4833
SWIDTH 1666 0
DWIDTH 26 0
BBX 23 15 0 0
BITMAP
00007C
7F83BC
79C79C
79C70E
E1C700
01FF1C
01C7FC
01C73C
01C71C
01CF00
01CF00
03CF00
03CE00
03CE00
03CF00
ENDCHAR
STARTCHAR zhe-zey-salis
ENCODING 4834
SWIDTH 3200 0
DWIDTH 26 0
BBX 23 16 0 -1
BITMAP
00007C
7F83BC
79C73C
79C71E
E1C700
01FF00
01C700
01C700
01CF00
01CF00
01CE00
03CE00
03CE38
038E78
03CFF8
00003C
ENDCHAR
STARTCHAR zhe-zey-rabi
ENCODING 4835
SWIDTH 1666 0
DWIDTH 26 0
BBX 23 15 0 0
BITMAP
00007C
7F83BC
79C73C
79C71E
F1C700
01FF00
01C700
01C700
01CF00
01CF00
01CE00
000E00
000E00
000E00
000F00
ENDCHAR
STARTCHAR zhe-zey-hamis
ENCODING 4836
SWIDTH 1666 0
DWIDTH 26 0
BBX 23 15 0 0
BITMAP
00007C
7F83BC
79C73C
79C71E
E1C700
01FF00
01C700
01C700
01CF00
01CF00
01CFF0
03CE78
03CE78
038F70
03CFC0
ENDCHAR
STARTCHAR zhe-zey-sadis
ENCODING 4837
SWIDTH 1666 0
DWIDTH 26 0
BBX 23 20 0 0
BITMAP
703C00
787800
7FF800
078000
070000
07007C
7F83BC
79C73C
79C71E
F1C700
01C700
01C700
01FF00
01CF00
01CF00
01CE00
03CE00
03CE00
038E00
03CF00
ENDCHAR
STARTCHAR zhe-zey-sabi
ENCODING 4838
SWIDTH 1666 0
DWIDTH 26 0
BBX 23 15 0 0
BITMAP
00007C
7FC3BC
79C73C
71C71E
E1CF00
01F700
01C700
01C700
01CF00
01CF00
01CF00
03C000
038000
038000
03C000
ENDCHAR
STARTCHAR zhe-zey-zemede-rabi
ENCODING 4839
SWIDTH 1333 0
DWIDTH 21 0
BBX 18 19 0 -4
BITMAP
F003C0
EC0DC0
EC0DC0
CE1CC0
0FFC00
0E1C00
0F3C00
0F3C00
0F3C00
0F3C00
0F3C00
0F3C00
003C00
003C00
003C00
03FFC0
03C1C0
0181C0
0380C0
ENDCHAR
STARTCHAR yemen-geez
ENCODING 4840
SWIDTH 733 0
DWIDTH 12 0
BBX 9 16 0 0
BITMAP
1F00
7380
6380
E380
E380
E700
EE00
FC00
7000
7800
7800
3800
3800
3800
3800
3C00
ENDCHAR
STARTCHAR yemen-kaib
ENCODING 4841
SWIDTH 933 0
DWIDTH 15 0
BBX 12 16 0 0
BITMAP
0F80
39C0
71C0
E3C0
E380
E780
FE00
6000
71E0
7EE0
38F0
3870
3C00
3C00
3C00
3E00
ENDCHAR
STARTCHAR yemen-salis
ENCODING 4842
SWIDTH 1200 0
DWIDTH 19 0
BBX 16 16 0 0
BITMAP
0F00
3380
7380
E380
E700
EF00
FC00
6020
73C0
79C0
3FC0
39FF
380F
380F
3800
3C00
ENDCHAR
STARTCHAR yemen-rabi
ENCODING 4843
SWIDTH 1000 0
DWIDTH 16 0
BBX 13 18 0 -2
BITMAP
00F0
0338
0738
0E38
0E78
0EF0
0FC0
0E00
0600
0700
0700
0700
0380
1700
F800
7800
7800
F000
ENDCHAR
STARTCHAR yemen-hamis
ENCODING 4844
SWIDTH 1133 0
DWIDTH 18 0
BBX 15 16 0 0
BITMAP
1F00
7380
6380
E380
E380
E700
EE00
FC00
7000
7FFC
79CE
39CE
38FC
3800
3800
3C00
ENDCHAR
STARTCHAR yemen-sadis
ENCODING 4845
SWIDTH 1133 0
DWIDTH 18 0
BBX 15 17 0 -1
BITMAP
03E0
0E70
0C70
1C70
1CE0
1DE0
1FC0
1C00
1C12
0E0E
0E0E
0F0E
1F9C
7070
7000
7000
E000
ENDCHAR
STARTCHAR yemen-sabi
ENCODING 4846
SWIDTH 1066 0
DWIDTH 17 0
BBX 14 16 0 0
BITMAP
1F00
7380
6380
E380
E3FC
E73C
EE3C
FC1C
7000
7800
7800
3800
3800
3800
3800
3C00
ENDCHAR
STARTCHAR dint-geez
ENCODING 4848
SWIDTH 1066 0
DWIDTH 17 0
BBX 14 16 0 0
BITMAP
03E0
0670
0C70
1C70
1CE0
1DE0
1F80
1C00
1E00
0E00
0F00
0780
7FF8
7038
7038
E01C
ENDCHAR
STARTCHAR dint-kaib
ENCODING 4849
SWIDTH 1400 0
DWIDTH 22 0
BBX 19 16 0 0
BITMAP
01F000
073800
0E3800
0E3800
0E7000
0FE000
0FC000
070000
1FFC00
7A3C00
783FC0
7079E0
E079E0
00F040
00F000
00F000
ENDCHAR
STARTCHAR dint-salis
ENCODING 4850
SWIDTH 1266 0
DWIDTH 20 0
BBX 17 17 0 -1
BITMAP
01E000
067000
0E7000
0E7000
0E6000
0EC000
0F8000
070000
1FF800
7A7800
787000
707000
E0E000
00E380
00FF00
00EF80
000780
ENDCHAR
STARTCHAR dint-rabi
ENCODING 4851
SWIDTH 1000 0
DWIDTH 16 0
BBX 13 16 0 0
BITMAP
01E0
0670
0E70
0E70
0E60
0EC0
0F80
0700
1FF8
7A78
7878
7078
E070
0070
0070
0078
ENDCHAR
STARTCHAR dint-hamis
ENCODING 4852
SWIDTH 1466 0
DWIDTH 23 0
BBX 20 17 0 -1
BITMAP
03E000
067000
0C7000
1C7000
1CE000
1DE000
1F8000
1E0000
0E0000
0F0000
078000
07FFE0
381E70
781E70
781E70
F01FE0
000E00
ENDCHAR
STARTCHAR dint-sadis
ENCODING 4853
SWIDTH 1333 0
DWIDTH 21 0
BBX 18 16 0 0
BITMAP
01E000
067000
0C7000
1C7000
1CFF80
1DE380
1F83C0
1C0000
1E0000
0E0000
0F0000
078000
7FF800
703800
703800
E01C00
ENDCHAR
STARTCHAR dint-sabi
ENCODING 4854
SWIDTH 1200 0
DWIDTH 19 0
BBX 16 16 0 0
BITMAP
03E0
0E70
1C70
1C70
1CE0
1FE0
1F80
0E00
0F81
1FFE
381E
700F
7006
F000
F000
F000
ENDCHAR
STARTCHAR dint-zemede-rabi
ENCODING 4855
SWIDTH 2933 0
DWIDTH 24 0
BBX 21 19 0 -3
BITMAP
01E000
067000
0E7000
1C7000
1C7000
1CE000
1FC000
1E0000
1E0000
0F0000
0F0000
078000
7FFC00
703C00
701C00
E1FFF0
01E0F0
01C070
038038
ENDCHAR
STARTCHAR dhi-dint-geez
ENCODING 4856
SWIDTH 1200 0
DWIDTH 19 0
BBX 16 19 0 0
BITMAP
00E0
00E0
00E0
03F0
0738
0E38
0E38
1E78
1EF0
1FC0
0E00
0F00
0F00
0780
07FE
781E
780E
780F
F000
ENDCHAR
STARTCHAR dhi-dint-kaib
ENCODING 4857
SWIDTH 1400 0
DWIDTH 22 0
BBX 19 19 0 0
BITMAP
01C000
01C000
01C000
01F000
067000
0E7800
0E7000
0E7000
0EE000
0F8000
0F0000
1FF800
723800
707FC0
7073C0
E071E0
00F080
00E000
00F000
ENDCHAR
STARTCHAR dhi-dint-salis
ENCODING 4858
SWIDTH 1333 0
DWIDTH 21 0
BBX 18 20 0 -1
BITMAP
00E000
00E000
00E000
01F000
073800
0E3800
0E3800
0E7800
0F7000
0FC000
070000
1FFC00
7B3C00
783800
707800
E07000
0071C0
00F780
00FF80
0003C0
ENDCHAR
STARTCHAR dhi-dint-rabi
ENCODING 4859
SWIDTH 1000 0
DWIDTH 16 0
BBX 13 20 0 0
BITMAP
01C0
01C0
01C0
01F0
0778
0E38
0E78
0E70
0E70
0FC0
0F00
0738
3FF8
7038
7078
7078
E078
0070
0070
0078
ENDCHAR
STARTCHAR dhi-dint-hamis
ENCODING 4860
SWIDTH 1466 0
DWIDTH 23 0
BBX 20 20 0 -1
BITMAP
01C000
01C000
01E000
01F000
067800
0E7800
1C7800
1C7000
1EE000
1F8000
1E0000
0F0000
0F0000
07C080
0FFFE0
780E70
780E70
780E70
F00FE0
000600
ENDCHAR
STARTCHAR dhi-dint-sadis
ENCODING 4861
SWIDTH 1333 0
DWIDTH 21 0
BBX 18 19 0 0
BITMAP
01C000
01C000
01C000
03F000
073800
0E3800
1E7800
1E7FC0
1EF3C0
1FC1C0
0E0000
0F0000
0F0000
078000
078000
1FFE00
781C00
781E00
F00F00
ENDCHAR
STARTCHAR dhi-dint-sabi
ENCODING 4862
SWIDTH 1200 0
DWIDTH 19 0
BBX 16 19 0 0
BITMAP
0380
0380
0380
03E0
0EF0
1C70
1CF0
1CE0
1DC0
1F80
1E00
0F8E
1F7E
381E
700F
7000
F000
F000
F000
ENDCHAR
STARTCHAR dhi-dint-zemede-rabi
ENCODING 4863
SWIDTH 1600 0
DWIDTH 25 0
BBX 22 21 0 -2
BITMAP
00E000
00E000
00E000
03F000
073800
0E3800
0E3800
1E7800
1EF000
1FC000
0E0000
0F0000
0F0000
078000
07FE00
781E00
780E00
78FFF8
F0F078
00E038
01C01C
ENDCHAR
STARTCHAR ji-dint-geez
ENCODING 4864
SWIDTH 1266 0
DWIDTH 20 0
BBX 17 21 0 -2
BITMAP
000300
780700
3CFF00
3FC780
71C000
01F000
073800
063800
0E3800
0E7800
0E7000
0FE000
0E0000
0E0000
0F0000
070000
0BE400
301C00
781E00
700E00
E00000
ENDCHAR
STARTCHAR ji-dint-kaib
ENCODING 4865
SWIDTH 1400 0
DWIDTH 22 0
BBX 19 21 0 -1
BITMAP
000100
000700
780F00
7FFF00
79C780
F1C000
01F000
073800
063800
0E3800
0E3800
0E7000
0FE000
070000
07F800
0B9FE0
3839E0
3C38E0
783800
007800
007800
ENDCHAR
STARTCHAR ji-dint-salis
ENCODING 4866
SWIDTH 1333 0
DWIDTH 21 0
BBX 18 22 0 -2
BITMAP
000180
000700
780F00
7FFF80
79C700
F1C000
01F000
073800
063800
0E3800
0E3800
0E7000
0FE000
070000
07F800
093C00
383800
3C3800
783840
007B80
007FC0
0003C0
ENDCHAR
STARTCHAR ji-dint-rabi
ENCODING 4867
SWIDTH 1133 0
DWIDTH 18 0
BBX 15 20 0 -1
BITMAP
203C
F03C
7FFC
773E
E700
07C0
1CE0
18E0
38E0
38E0
3BC0
3F80
1C00
1FF0
2EF0
60E0
70E0
E0E0
01E0
01E0
ENDCHAR
STARTCHAR ji-dint-hamis
ENCODING 4868
SWIDTH 1333 0
DWIDTH 21 0
BBX 18 21 0 -2
BITMAP
000F00
F00E00
7FFF00
738E00
E38000
03E000
0E7000
0C7000
1C7000
1C7000
1CE000
1FC000
1E0000
0E0000
0F0000
078000
0FC000
38FFC0
3819C0
3839C0
001F80
ENDCHAR
STARTCHAR ji-dint-sadis
ENCODING 4869
SWIDTH 1333 0
DWIDTH 21 0
BBX 18 21 0 -2
BITMAP
000780
780F00
3FFF80
3DC700
71C000
01F000
073800
063800
0E3840
0E7FC0
0E71C0
0FE1C0
0E0000
0E0000
0F0000
070000
0FC000
11FC00
781C00
780E00
F00000
ENDCHAR
STARTCHAR ji-dint-sabi
ENCODING 4870
SWIDTH 1333 0
DWIDTH 21 0
BBX 18 20 0 -1
BITMAP
080780
3E0F80
1FFF80
1EE740
3CE000
00F800
039C00
031C00
071C00
073C00
073800
07F000
070000
038000
0DFF00
380F00
380780
700000
F00000
F80000
ENDCHAR
STARTCHAR ji-dint-zemede-rabi
ENCODING 4871
SWIDTH 1533 0
DWIDTH 24 0
BBX 21 24 0 -2
BITMAP
000E00
301E00
7BFE00
3DCF00
79C000
03E000
067000
0E7000
1C7000
1C7000
1CE000
1DC000
1E0000
1E0000
0F0000
0F0000
078000
3FFC00
703C00
701C00
E07FF0
01E0F0
01C070
038038
ENDCHAR
STARTCHAR gemel-geez
ENCODING 4872
SWIDTH 800 0
DWIDTH 13 0
BBX 10 15 0 0
BITMAP
0F80
73C0
73C0
73C0
C3C0
03C0
0380
0780
0780
0780
0700
0F00
0F00
0F00
0F00
ENDCHAR
STARTCHAR gemel-kaib
ENCODING 4873
SWIDTH 1200 0
DWIDTH 19 0
BBX 16 13 0 0
BITMAP
0F80
F3C0
71C0
F1C0
C3FF
03CF
038F
0387
0380
0780
0780
0700
0780
ENDCHAR
STARTCHAR gemel-salis
ENCODING 4874
SWIDTH 1200 0
DWIDTH 19 0
BBX 16 14 0 -1
BITMAP
0F80
F3C0
71C0
F1C0
C3C0
03C0
0380
0380
0380
0780
0787
079E
07FE
000F
ENDCHAR
STARTCHAR gemel-rabi
ENCODING 4875
SWIDTH 1133 0
DWIDTH 18 0
BBX 15 14 0 0
BITMAP
00FC
079E
079E
071E
001E
001E
001C
003C
0038
00F0
7F80
7800
7800
F000
ENDCHAR
STARTCHAR gemel-hamis
ENCODING 4876
SWIDTH 1000 0
DWIDTH 16 0
BBX 13 15 0 0
BITMAP
0F80
7780
73C0
73C0
C3C0
0380
0380
0780
0780
0700
07F8
0F38
0F38
0F70
0FE0
ENDCHAR
STARTCHAR gemel-sadis
ENCODING 4877
SWIDTH 1000 0
DWIDTH 16 0
BBX 13 15 0 0
BITMAP
01F0
1F78
6738
E738
E738
F678
7870
0070
0070
00F0
00E0
00E0
00E0
00E0
00E0
ENDCHAR
STARTCHAR gemel-sabi
ENCODING 4878
SWIDTH 866 0
DWIDTH 14 0
BBX 11 16 0 0
BITMAP
0F00
0F00
0F00
0F00
0FC0
71E0
71E0
E1E0
03C0
03C0
0780
0780
0700
0F00
0F00
0F00
ENDCHAR
STARTCHAR gemel-zemede-geez
ENCODING 4880
SWIDTH 1400 0
DWIDTH 22 0
BBX 19 16 0 0
BITMAP
0F8000
77C000
F3C000
F1C000
E3C000
03FFE0
03DCE0
039CE0
039CE0
079FC0
078000
078000
070000
070000
0F0000
078000
ENDCHAR
STARTCHAR gemel-zemede-salis
ENCODING 4882
SWIDTH 1466 0
DWIDTH 23 0
BBX 20 15 0 0
BITMAP
0F8000
F3C000
F3CE00
E3CE00
C3CE00
03FE00
038E00
079E00
0781F0
0700F0
070070
0F0030
0E0000
0E0000
0F0000
ENDCHAR
STARTCHAR gemel-zemede-rabi
ENCODING 4883
SWIDTH 933 0
DWIDTH 15 0
BBX 12 16 0 0
BITMAP
0F80
F3C0
F1C0
E1C0
83C0
03C0
0F80
78F0
F070
F070
E0F0
00F0
00E0
01E0
01E0
01E0
ENDCHAR
STARTCHAR gemel-zemede-hamis
ENCODING 4884
SWIDTH 1200 0
DWIDTH 19 0
BBX 16 19 0 -4
BITMAP
01F0
1EF0
1E78
1C78
1878
0078
0070
00F0
00F0
00E0
01FF
01E7
01E7
03EE
0F18
7800
7800
7000
E000
ENDCHAR
STARTCHAR gemel-zemede-kaib
ENCODING 4885
SWIDTH 1266 0
DWIDTH 20 0
BBX 17 15 0 0
BITMAP
0F8000
F38000
F3D400
E3CE00
C3DE00
03DC00
03FC00
078380
078380
070380
070000
0F0000
0E0000
0E0000
0F0000
ENDCHAR
STARTCHAR nge-gemel-geez
ENCODING 4888
SWIDTH 1133 0
DWIDTH 18 0
BBX 15 21 0 0
BITMAP
000E
F01E
7BFE
7F9E
F380
0380
07C0
39E0
39E0
39E0
61E0
01E0
01C0
03C0
03C0
03C0
0380
0780
0780
0780
0780
ENDCHAR
STARTCHAR nge-gemel-kaib
ENCODING 4889
SWIDTH 1266 0
DWIDTH 20 0
BBX 17 19 0 0
BITMAP
000E00
F01E00
7BFE00
7F9E00
F38000
038000
07C000
79E000
38E000
78E000
61FF80
01E780
01C780
01C380
01C000
03C000
03C000
038000
03C000
ENDCHAR
STARTCHAR nge-gemel-salis
ENCODING 4890
SWIDTH 1266 0
DWIDTH 20 0
BBX 17 20 0 0
BITMAP
000E00
F01E00
7BFE00
7F9E00
F38000
038000
07C000
79E000
38E000
78E000
61E000
01E000
01C000
01C000
01C000
03C000
03C380
03CF00
03FF00
000780
ENDCHAR
STARTCHAR nge-gemel-rabi
ENCODING 4891
SWIDTH 1333 0
DWIDTH 21 0
BBX 18 20 0 0
BITMAP
0001C0
1E03C0
0F7FC0
0FF3C0
1E7000
007000
00FC00
079E00
079E00
071E00
001E00
001E00
001C00
003C00
003800
00F000
7F8000
780000
780000
F00000
ENDCHAR
STARTCHAR nge-gemel-hamis
ENCODING 4892
SWIDTH 1133 0
DWIDTH 18 0
BBX 15 21 0 0
BITMAP
000E
F01E
7BFE
7F9E
F380
0380
03E0
1DE0
1CF0
1CF0
30F0
00E0
00E0
01E0
01E0
01C0
01FE
03CE
03CE
03DC
03F8
ENDCHAR
STARTCHAR nge-gemel-sadis
ENCODING 4893
SWIDTH 1266 0
DWIDTH 20 0
BBX 17 21 0 0
BITMAP
000380
3C0780
1EFF80
1FE780
3CE000
00E000
01F000
1F7800
673800
E73800
E73800
F67800
787000
007000
007000
00F000
00E000
00E000
00E000
00E000
00E000
ENDCHAR
STARTCHAR nge-gemel-sabi
ENCODING 4894
SWIDTH 1200 0
DWIDTH 19 0
BBX 16 21 0 0
BITMAP
0007
F00F
79FF
7FEF
F670
0E70
0E60
0FE0
07C0
03F0
1C78
1C78
3878
00F0
00F0
01E0
01E0
01C0
03C0
03C0
03C0
ENDCHAR
STARTCHAR teyt-geez
ENCODING 4896
SWIDTH 1333 0
DWIDTH 21 0
BBX 18 12 0 0
BITMAP
01FE00
0FDF00
39C780
31C380
71C380
61C380
E1C380
E1C380
E1C380
E1C380
E1C380
F1C3C0
ENDCHAR
STARTCHAR teyt-kaib
ENCODING 4897
SWIDTH 1733 0
DWIDTH 27 0
BBX 24 12 0 0
BITMAP
01FF00
0FCF80
39C3C0
31C1C7
71C1FF
61C1CF
E1C1CF
E1C1C0
E1C1C0
E1C1C0
E1C1C0
F1E1E0
ENDCHAR
STARTCHAR teyt-salis
ENCODING 4898
SWIDTH 3333 0
DWIDTH 27 0
BBX 24 13 0 -1
BITMAP
01FE00
0FDF00
39C780
31C380
71C380
61C380
E1C380
E1C380
E1C380
E1C386
E1C39E
F1C3FE
00000F
ENDCHAR
STARTCHAR teyt-rabi
ENCODING 4899
SWIDTH 1266 0
DWIDTH 20 0
BBX 17 15 0 0
BITMAP
01FF00
1EE700
38E380
70E380
71E380
E1C380
E1C380
E1C780
E1C700
F1E700
000700
000700
000F00
000F00
000700
ENDCHAR
STARTCHAR teyt-hamis
ENCODING 4900
SWIDTH 1466 0
DWIDTH 23 0
BBX 20 12 0 0
BITMAP
03FC00
1DDE00
33CE00
738E00
738E00
638E00
E38E00
E38E60
E38FF0
E38E70
E38E70
F3CFE0
ENDCHAR
STARTCHAR teyt-sadis
ENCODING 4901
SWIDTH 1133 0
DWIDTH 18 0
BBX 15 13 0 0
BITMAP
07F8
3B9C
738E
F38E
E38E
E5C0
01C0
03C0
03C0
0380
0380
0380
03C0
ENDCHAR
STARTCHAR teyt-sabi
ENCODING 4902
SWIDTH 1266 0
DWIDTH 20 0
BBX 17 14 0 0
BITMAP
007C00
03DE00
1DC700
39C700
31C700
71C700
61C700
E1C700
E1C780
E1C400
E10000
E00000
E00000
F00000
ENDCHAR
STARTCHAR teyt-zemede-rabi
ENCODING 4903
SWIDTH 1666 0
DWIDTH 26 0
BBX 23 15 0 -3
BITMAP
03FE00
1CE700
38E380
30E380
70E380
61C380
E1C380
E1C380
E1C380
E1E380
F00780
001FFE
00E03C
00E01E
01C000
ENDCHAR
STARTCHAR che-teyt-geez
ENCODING 4904
SWIDTH 1866 0
DWIDTH 29 0
BBX 26 12 0 0
BITMAP
00FFE000
07707000
18703800
30703800
70703800
60703800
E0703800
FE7F3F80
E773B9C0
E773B9C0
E773B980
F87C3E00
ENDCHAR
STARTCHAR che-teyt-kaib
ENCODING 4905
SWIDTH 1866 0
DWIDTH 29 0
BBX 26 12 0 0
BITMAP
00FFC000
07707000
18703800
30703FC0
70703BC0
607039C0
E0703800
FE7F3800
E773BFC0
E773B9C0
E773B9C0
F87C3F80
ENDCHAR
STARTCHAR che-teyt-salis
ENCODING 4906
SWIDTH 3733 0
DWIDTH 30 0
BBX 27 14 0 -2
BITMAP
007FC000
07F07000
18703000
30703800
70703800
60703800
E0703800
FE7E3800
E777B800
E773B800
E7773820
F87C3FC0
000001C0
000001E0
ENDCHAR
STARTCHAR che-teyt-rabi
ENCODING 4907
SWIDTH 1666 0
DWIDTH 26 0
BBX 23 14 0 0
BITMAP
07FFC0
1C7070
307030
7E7E38
6E6778
EEE770
EEEE70
F8FCF0
0000E0
0001FC
0001DE
0003CE
0003DC
0003F0
ENDCHAR
STARTCHAR che-teyt-hamis
ENCODING 4908
SWIDTH 2066 0
DWIDTH 32 0
BBX 29 12 0 0
BITMAP
00FF8000
0770E000
187073F0
30707F38
707077B8
607073F0
E0707000
FE7E7F00
E7777780
E7737380
E7777300
F87C7C00
ENDCHAR
STARTCHAR che-teyt-sadis
ENCODING 4909
SWIDTH 1666 0
DWIDTH 26 0
BBX 23 15 0 0
BITMAP
03FFC0
1C38E0
3838E0
7E78FE
7770EE
F771CE
F639DC
FC39F8
007800
007000
007600
00FF00
00E700
00FF00
00E800
ENDCHAR
STARTCHAR che-teyt-sabi
ENCODING 4910
SWIDTH 1866 0
DWIDTH 29 0
BBX 26 15 0 0
BITMAP
01FBF000
0E3C7800
1C383800
383FBFC0
3073BBC0
7073B9C0
70773B80
707C3E00
E0000000
FF000000
EF000000
E7000000
E7000000
FE000000
E0000000
ENDCHAR
STARTCHAR che-teyt-zemede-rabi
ENCODING 4911
SWIDTH 1933 0
DWIDTH 30 0
BBX 27 17 0 -2
BITMAP
007FC000
07F87000
1C703000
30703800
70703800
60703800
E0703800
E0703800
FF7F3800
E773B800
E7733800
FE7F3860
40403FE0
001FC1E0
000F00E0
000E0000
000C0000
ENDCHAR
STARTCHAR peyt-geez
ENCODING 4912
SWIDTH 933 0
DWIDTH 15 0
BBX 12 18 0 0
BITMAP
0600
0E00
0E00
0E00
1F80
39C0
71C0
71C0
73C0
7F80
0F00
1E00
3FC0
39E0
70E0
F0E0
F0E0
78F0
ENDCHAR
STARTCHAR peyt-kaib
ENCODING 4913
SWIDTH 1333 0
DWIDTH 21 0
BBX 18 18 0 0
BITMAP
030000
0F0000
070000
070000
0F8000
19C000
39E000
39E000
39C000
3FC000
078000
0F0000
1FE1C0
3CFF80
787380
7073C0
F07000
607800
ENDCHAR
STARTCHAR peyt-salis
ENCODING 4914
SWIDTH 1400 0
DWIDTH 22 0
BBX 19 19 0 -1
BITMAP
030000
0F0000
0E0000
0E0000
1F8000
39C000
71C000
71C000
7BC000
7F8000
070000
0E0000
1FC000
39E000
78E000
F0F060
F0F3C0
787FC0
0001E0
ENDCHAR
STARTCHAR peyt-rabi
ENCODING 4915
SWIDTH 866 0
DWIDTH 14 0
BBX 11 18 0 0
BITMAP
0C00
1C00
1C00
1C00
3F00
7380
E380
E380
E780
FF00
1E00
3C00
7F80
73C0
E1C0
F1C0
01C0
01E0
ENDCHAR
STARTCHAR peyt-hamis
ENCODING 4916
SWIDTH 1266 0
DWIDTH 20 0
BBX 17 18 0 0
BITMAP
030000
0F0000
070000
070000
0FC000
19E000
38E000
39E000
39E000
3FC000
078000
0F0000
1FE000
3CFF00
78F780
70F780
F07380
F07E00
ENDCHAR
STARTCHAR peyt-sadis
ENCODING 4917
SWIDTH 1133 0
DWIDTH 18 0
BBX 15 18 0 0
BITMAP
0600
0E00
0E00
0E00
1F80
39C6
71FE
71DE
73CE
7F80
0F00
1E00
3FE0
39E0
70E0
F0E0
F0E0
78F0
ENDCHAR
STARTCHAR peyt-sabi
ENCODING 4918
SWIDTH 933 0
DWIDTH 15 0
BBX 12 18 0 0
BITMAP
0300
0F00
0F00
0F00
0F80
39C0
79C0
71E0
7BC0
3F80
0700
0E00
1FE0
3CF0
78F0
7080
F000
F800
ENDCHAR
STARTCHAR peyt-zemede-rabi
ENCODING 4919
SWIDTH 1333 0
DWIDTH 21 0
BBX 18 22 0 -4
BITMAP
030000
070000
070000
070000
1F8000
3DE000
39E000
79E000
7BC000
3F8000
0F0000
1E0000
3FE000
78E000
70E000
F8E000
00E000
00E000
23FFC0
1C0380
1C03C0
380000
ENDCHAR
STARTCHAR sedey-geez
ENCODING 4920
SWIDTH 933 0
DWIDTH 15 0
BBX 12 14 0 0
BITMAP
1F80
3BC0
71C0
71C0
73C0
7F80
0F00
1E00
3FE0
39E0
70E0
F0E0
F0E0
78F0
ENDCHAR
STARTCHAR sedey-kaib
ENCODING 4921
SWIDTH 1333 0
DWIDTH 21 0
BBX 18 14 0 0
BITMAP
0F8000
39C000
71C000
71C000
7BC000
7F8000
070000
0E0000
1FE3C0
38FF80
78F3C0
F0F000
F0F000
78F800
ENDCHAR
STARTCHAR sedey-salis
ENCODING 4922
SWIDTH 1333 0
DWIDTH 21 0
BBX 18 16 0 -1
BITMAP
078000
7FC000
73C000
F38000
F78000
7F0000
0E0000
1E0000
1FC000
39E000
79E000
70E000
F0E380
F0FF80
F0F3C0
000380
ENDCHAR
STARTCHAR sedey-rabi
ENCODING 4923
SWIDTH 866 0
DWIDTH 14 0
BBX 11 14 0 0
BITMAP
3E00
7700
E380
E780
E700
7F00
1E00
3F00
7F80
73C0
E1C0
71C0
01C0
01E0
ENDCHAR
STARTCHAR sedey-hamis
ENCODING 4924
SWIDTH 1200 0
DWIDTH 19 0
BBX 16 15 0 0
BITMAP
0780
7FC0
73C0
F380
F780
7F00
0E00
1E00
3FC0
39E0
79FE
70EF
F0E7
F0F7
F0FC
ENDCHAR
STARTCHAR sedey-sadis
ENCODING 4925
SWIDTH 1200 0
DWIDTH 19 0
BBX 16 14 0 0
BITMAP
0F80
39C3
71FF
71CF
7BC7
7F80
0F00
1E00
1FE0
38E0
70E0
F0F0
F0F0
78F0
ENDCHAR
STARTCHAR sedey-sabi
ENCODING 4926
SWIDTH 866 0
DWIDTH 14 0
BBX 11 15 0 0
BITMAP
0780
7F80
7380
F380
F780
7F00
0E00
1C00
3F80
3BC0
71E0
71E0
F180
F000
F000
ENDCHAR
STARTCHAR sedey-zemede-rabi
ENCODING 4927
SWIDTH 1333 0
DWIDTH 21 0
BBX 18 18 0 -4
BITMAP
1F8000
3DE000
39E000
79E000
7BC000
3F8000
0F0000
1E0000
3FE000
78E000
70E000
F8E000
00E000
00E000
23FFC0
1C0380
1C03C0
380000
ENDCHAR
STARTCHAR sepa-geez
ENCODING 4928
SWIDTH 800 0
DWIDTH 13 0
BBX 10 14 0 0
BITMAP
0780
1BC0
39C0
71C0
71C0
73C0
FFC0
F3C0
F3C0
F380
F380
F780
FF00
7000
ENDCHAR
STARTCHAR sepa-kaib
ENCODING 4929
SWIDTH 1200 0
DWIDTH 19 0
BBX 16 14 0 0
BITMAP
0780
1BC0
39C0
71C0
71C0
73FF
FFCF
F3CF
F3C7
F380
F380
F780
FF00
7000
ENDCHAR
STARTCHAR sepa-salis
ENCODING 4930
SWIDTH 1000 0
DWIDTH 16 0
BBX 13 17 0 -1
BITMAP
1F00
7780
E380
E780
FF80
E780
F700
7F00
0F00
0F00
0E00
0E00
1E00
1E38
1E70
1FF0
0078
ENDCHAR
STARTCHAR sepa-rabi
ENCODING 4931
SWIDTH 733 0
DWIDTH 12 0
BBX 9 16 0 0
BITMAP
0F00
7380
F380
F780
FB80
F780
F780
7F80
0700
0F00
0F00
0F00
0E00
1E00
1E00
1C00
ENDCHAR
STARTCHAR sepa-hamis
ENCODING 4932
SWIDTH 933 0
DWIDTH 15 0
BBX 12 16 0 0
BITMAP
0F00
7380
F380
F780
FB80
F780
F780
7F80
0700
0F00
0F00
0FE0
0E70
1E70
1EF0
1FE0
ENDCHAR
STARTCHAR sepa-sadis
ENCODING 4933
SWIDTH 800 0
DWIDTH 13 0
BBX 10 16 0 0
BITMAP
0700
0F00
0F00
0F00
0F80
39C0
71C0
73C0
7DC0
F3C0
F3C0
F380
F380
F380
FF00
7000
ENDCHAR
STARTCHAR sepa-sabi
ENCODING 4934
SWIDTH 933 0
DWIDTH 15 0
BBX 12 16 0 0
BITMAP
00F0
07F0
0E70
0FF0
1E70
1E70
0EE0
0FC0
0E00
1C00
3800
3000
7000
F000
F000
F000
ENDCHAR
STARTCHAR af-geez
ENCODING 4936
SWIDTH 1133 0
DWIDTH 18 0
BBX 15 15 0 0
BITMAP
03C0
01C0
03C0
0380
0780
0F00
0E00
1C00
3B00
7F80
F380
E79E
E7FC
FE1E
701E
ENDCHAR
STARTCHAR af-kaib
ENCODING 4937
SWIDTH 1200 0
DWIDTH 19 0
BBX 16 18 0 0
BITMAP
0380
07C0
0380
0780
0F00
1E00
3C00
7FC0
FBC0
F39E
F7FE
7F1F
0F0E
0E00
1E00
1C00
3C00
1E00
ENDCHAR
STARTCHAR af-salis
ENCODING 4938
SWIDTH 1200 0
DWIDTH 19 0
BBX 16 15 0 0
BITMAP
00E0
01E0
01E0
01C0
03C0
0780
0E00
1C00
3B80
7FCF
F3CF
F3CF
F38E
FE7C
7000
ENDCHAR
STARTCHAR af-rabi
ENCODING 4939
SWIDTH 1200 0
DWIDTH 19 0
BBX 16 18 0 0
BITMAP
0380
03C0
0380
0780
0F00
1E00
7800
7F80
F380
F380
F3BF
7FDE
039E
078E
0787
0780
0780
0780
ENDCHAR
STARTCHAR af-hamis
ENCODING 4940
SWIDTH 1333 0
DWIDTH 21 0
BBX 18 16 0 -1
BITMAP
03C000
01C000
01C000
038000
078000
0F0000
0E0000
1C0000
3B0000
7F8000
F38000
E38F80
E7F9C0
FF39C0
707BC0
003F80
ENDCHAR
STARTCHAR af-sadis
ENCODING 4941
SWIDTH 1133 0
DWIDTH 18 0
BBX 15 15 0 0
BITMAP
07FC
1C3C
381C
700C
F000
FF00
E780
E780
7FFE
079C
079E
070E
0700
0700
0700
ENDCHAR
STARTCHAR af-sabi
ENCODING 4942
SWIDTH 1200 0
DWIDTH 19 0
BBX 16 15 0 0
BITMAP
00FC
1FEE
39CE
31FE
70F8
7000
F000
F000
FF00
F780
F380
F38F
F7FE
FE1E
700F
ENDCHAR
STARTCHAR af-zemede-rabi
ENCODING 4943
SWIDTH 1266 0
DWIDTH 20 0
BBX 17 21 0 -4
BITMAP
03E000
01E000
01C000
03C000
078000
0F0000
1E0000
3FC000
79C000
79C000
39FF80
1FC780
01C780
01C300
01C000
01C000
03C100
FFFE00
F00F00
F00700
E00000
ENDCHAR
STARTCHAR psa-geez
ENCODING 4944
SWIDTH 1333 0
DWIDTH 21 0
BBX 18 14 0 0
BITMAP
007F80
7FE780
79C380
71C1C0
81C000
01C000
03C000
03C000
03C000
038000
038000
038000
038000
038000
ENDCHAR
STARTCHAR psa-kaib
ENCODING 4945
SWIDTH 1333 0
DWIDTH 21 0
BBX 18 14 0 0
BITMAP
007F80
7FE780
79C380
71C1C0
81C000
01C000
03C000
03CF00
03FE00
038F00
038000
038000
038000
038000
ENDCHAR
STARTCHAR psa-salis
ENCODING 4946
SWIDTH 2533 0
DWIDTH 21 0
BBX 18 15 0 -1
BITMAP
007F80
7FE780
79C380
71C1C0
81C000
01C000
03C000
03C000
03C000
038000
038000
038000
038F00
03FF00
000F80
ENDCHAR
STARTCHAR psa-rabi
ENCODING 4947
SWIDTH 2933 0
DWIDTH 24 0
BBX 21 15 0 -1
BITMAP
000FF0
0FFCF0
0F3C70
0E3838
003800
003800
003800
003800
007800
007000
00E000
078000
780000
700000
F00000
ENDCHAR
STARTCHAR psa-hamis
ENCODING 4948
SWIDTH 1333 0
DWIDTH 21 0
BBX 18 14 0 0
BITMAP
007F80
7FE780
79C380
71C1C0
81C000
01C000
03C000
03C000
03C000
03FC00
039E00
039C00
039C00
03F800
ENDCHAR
STARTCHAR psa-sadis
ENCODING 4949
SWIDTH 1333 0
DWIDTH 21 0
BBX 18 14 0 0
BITMAP
007F80
7FE780
79C380
71C1C0
81C000
007000
00F000
00F000
00F000
00E000
00E000
00E000
00E000
01E000
ENDCHAR
STARTCHAR psa-sabi
ENCODING 4950
SWIDTH 1533 0
DWIDTH 24 0
BBX 21 15 0 -1
BITMAP
0007F0
0FFCF0
0F3C70
0E3C38
003800
007800
00F000
01E000
078000
0F0000
1E0000
7C0000
780000
F00000
F80000
ENDCHAR
STARTCHAR psa-zemede-rabi
ENCODING 4951
SWIDTH 1333 0
DWIDTH 21 0
BBX 18 18 0 -4
BITMAP
007F80
7FE780
71C380
71C3C0
E1C000
01C000
03C000
03C000
03C000
038000
038000
038000
038000
07FC00
7C3C00
783C00
701E00
E00000
ENDCHAR
STARTCHAR re-zemede-ya
ENCODING 4952
SWIDTH 1200 0
DWIDTH 19 0
BBX 16 16 0 0
BITMAP
7007
380E
3E1E
01E0
01C0
0380
0700
0E00
3C00
7800
70F0
F0F0
F0F0
F0E0
FB80
7C00
ENDCHAR
STARTCHAR me-zemede-ya
ENCODING 4953
SWIDTH 1666 0
DWIDTH 26 0
BBX 23 23 0 -1
BITMAP
000700
0E0F00
0F0F00
0FFC00
087000
007000
0061C0
0FFFE0
3B9CE0
73BDE0
F7BDE0
F7BFE0
E719C0
FF01C0
7003C0
000380
000380
000780
000780
00070E
000F1E
0007FE
00001E
ENDCHAR
STARTCHAR fe-zemede-ya
ENCODING 4954
SWIDTH 1200 0
DWIDTH 19 0
BBX 16 16 0 0
BITMAP
7007
380E
3E1E
01E0
01C0
03C0
0780
0E00
1C00
3B80
7FCF
F3CF
F3CF
F38E
FE7C
7000
ENDCHAR
STARTCHAR neus-neteb
ENCODING 4961
SWIDTH 400 0
DWIDTH 7 0
BBX 4 11 0 0
BITMAP
F0
70
70
70
00
00
10
E0
E0
F0
C0
ENDCHAR
STARTCHAR ebiy-neteb
ENCODING 4962
SWIDTH 733 0
DWIDTH 12 0
BBX 9 11 0 0
BITMAP
0580
3380
F380
7380
7000
8180
1700
E700
E780
F400
C000
ENDCHAR
STARTCHAR netela-serez
ENCODING 4963
SWIDTH 533 0
DWIDTH 9 0
BBX 6 13 0 0
BITMAP
1C
E0
00
18
78
38
78
00
00
78
70
78
70
ENDCHAR
STARTCHAR neus-serez
ENCODING 4964
SWIDTH 533 0
DWIDTH 9 0
BBX 6 15 0 0
BITMAP
1C
E0
00
78
78
78
70
00
38
70
70
78
00
1C
E0
ENDCHAR
STARTCHAR asteamro
ENCODING 4965
SWIDTH 733 0
DWIDTH 12 0
BBX 9 12 0 0
BITMAP
3C00
1C00
1C00
1C00
0080
0F00
F000
0000
1C00
1C00
1C00
1A00
ENDCHAR
STARTCHAR ebiy-serez
ENCODING 4966
SWIDTH 800 0
DWIDTH 15 0
BBX 12 11 0 0
BITMAP
F000
7000
7000
7000
07F0
07F0
1000
E000
E000
F000
C000
ENDCHAR
STARTCHAR seleste-neteb
ENCODING 4967
SWIDTH 400 0
DWIDTH 7 0
BBX 4 16 0 0
BITMAP
F0
70
70
70
00
00
70
E0
F0
E0
00
00
F0
70
70
60
ENDCHAR
STARTCHAR sebate-neteb
ENCODING 4968
SWIDTH 1200 0
DWIDTH 19 0
BBX 16 16 0 0
BITMAP
03C0
01C0
01C0
F1C3
700F
7007
71C7
0388
03C0
1380
E00E
E00E
F3CE
C1CF
01C0
0180
ENDCHAR
STARTCHAR ahadu
ENCODING 4969
SWIDTH 933 0
DWIDTH 15 0
BBX 12 20 0 -3
BITMAP
03E0
3CF0
3840
0000
1E00
0E00
1E00
1E00
3FC0
3DC0
79E0
71E0
F1E0
F1C0
FBC0
7F00
0000
3FC0
71C0
E000
ENDCHAR
STARTCHAR kileitu
ENCODING 4970
SWIDTH 800 0
DWIDTH 13 0
BBX 10 20 0 -3
BITMAP
1FC0
71C0
E000
0600
3B80
73C0
73C0
F380
F700
FE00
F000
F100
7F80
7380
3380
1E00
0000
0FC0
71C0
6000
ENDCHAR
STARTCHAR selestu
ENCODING 4971
SWIDTH 800 0
DWIDTH 13 0
BBX 10 19 0 -3
BITMAP
1FC0
71C0
6000
0040
7FC0
71C0
71C0
7000
7000
7000
7000
7000
F000
F000
F000
0000
7F00
E380
E000
ENDCHAR
STARTCHAR arbaitu
ENCODING 4972
SWIDTH 733 0
DWIDTH 12 0
BBX 9 19 0 -3
BITMAP
3F00
E380
C000
0000
3E00
7700
E700
E780
E780
E700
E700
E700
EE00
3800
0000
0000
FF00
E380
8000
ENDCHAR
STARTCHAR hamistu
ENCODING 4973
SWIDTH 1000 0
DWIDTH 16 0
BBX 13 19 0 -3
BITMAP
3FE0
70E0
6000
0F00
0700
0F00
0EF0
1F70
3C78
3810
7800
F000
F0E0
F0E0
7FF0
0000
07C0
38E0
7040
ENDCHAR
STARTCHAR sidistu
ENCODING 4974
SWIDTH 933 0
DWIDTH 15 0
BBX 12 19 0 -3
BITMAP
5FC0
30E0
6000
0700
FF80
F380
E780
8780
0700
0F00
0E00
1E00
1C70
1FF0
0070
0000
1FC0
70C0
7060
ENDCHAR
STARTCHAR sebatu
ENCODING 4975
SWIDTH 866 0
DWIDTH 14 0
BBX 11 20 0 -3
BITMAP
1FC0
71C0
6000
0000
FF00
E700
E700
8F00
0E00
0E00
1E00
1FC0
3DE0
3DE0
39E0
3F80
0000
7FC0
71E0
6000
ENDCHAR
STARTCHAR sementu
ENCODING 4976
SWIDTH 1066 0
DWIDTH 17 0
BBX 14 19 0 -2
BITMAP
0FF0
0C38
1C00
0000
7FFC
739C
738C
6380
0380
0380
0380
0780
0718
7FF8
7038
E018
0000
3FE0
38E0
ENDCHAR
STARTCHAR tesatu
ENCODING 4977
SWIDTH 800 0
DWIDTH 13 0
BBX 10 19 0 -3
BITMAP
1F80
71C0
6000
0040
73C0
71C0
71C0
7FC0
71C0
71C0
71C0
73C0
7380
7300
7E00
0000
0780
FB80
E180
ENDCHAR
STARTCHAR asertu
ENCODING 4978
SWIDTH 733 0
DWIDTH 12 0
BBX 9 19 0 -3
BITMAP
1F80
E380
E000
0000
1E00
0E00
1E00
1E00
1C00
1C00
1C00
1C00
1C00
1C00
0000
0000
0780
FB80
E180
ENDCHAR
STARTCHAR isra
ENCODING 4979
SWIDTH 1066 0
DWIDTH 17 0
BBX 14 20 0 -3
BITMAP
07E0
1870
3820
00FC
FF9C
F79C
E700
0F00
0E00
1FC0
3FE0
38E0
78E0
70E0
70F0
78F0
0000
0FE0
30E0
7040
ENDCHAR
STARTCHAR selasa
ENCODING 4980
SWIDTH 1133 0
DWIDTH 18 0
BBX 15 19 0 -3
BITMAP
01FC
0E1C
0C00
0000
00FC
19CE
73CE
738E
F38E
F39E
F39E
F39E
779E
3E1E
0008
0000
00F8
1F38
1C10
ENDCHAR
STARTCHAR arba
ENCODING 4981
SWIDTH 1066 0
DWIDTH 17 0
BBX 14 20 0 -3
BITMAP
03F0
3C38
3810
0000
03BC
F79C
F79C
E7FC
E73C
E638
7838
0038
0078
0078
0070
0078
0000
0FE0
70E0
6000
ENDCHAR
STARTCHAR hamsa
ENCODING 4982
SWIDTH 800 0
DWIDTH 13 0
BBX 10 20 0 -3
BITMAP
0FC0
71C0
7080
0040
79C0
79C0
79C0
7BC0
7B80
3F80
0380
0780
0700
0700
0700
0780
0000
3F80
E380
E000
ENDCHAR
STARTCHAR sisa
ENCODING 4983
SWIDTH 1133 0
DWIDTH 18 0
BBX 15 20 0 -3
BITMAP
03F0
1C78
1820
000E
7FFE
738E
6780
C5C0
03C0
0380
0380
0780
1FF8
7038
601C
C000
0000
1FF0
1870
1000
ENDCHAR
STARTCHAR seba
ENCODING 4984
SWIDTH 1133 0
DWIDTH 18 0
BBX 15 20 0 -3
BITMAP
03F0
1C78
1C00
0018
00EE
0FCE
39CE
39CE
78F8
7000
F000
F000
F060
F1E0
73E0
3CF0
0000
0FE0
1C70
3800
ENDCHAR
STARTCHAR semanya
ENCODING 4985
SWIDTH 1400 0
DWIDTH 22 0
BBX 19 20 0 -3
BITMAP
003E00
07CE00
060000
080000
003FE0
3FD8E0
F3B8E0
E3B800
C3B800
03B800
073800
073800
073800
077800
077800
072000
000000
03FE00
060E00
0E0000
ENDCHAR
STARTCHAR tesa
ENCODING 4986
SWIDTH 800 0
DWIDTH 13 0
BBX 10 20 0 -3
BITMAP
0FC0
71C0
7000
0300
7F80
F780
E780
C780
01C0
03C0
0380
0780
0780
0700
0F00
0F00
0000
1FC0
71C0
7000
ENDCHAR
STARTCHAR meet
ENCODING 4987
SWIDTH 800 0
DWIDTH 13 0
BBX 10 19 0 -3
BITMAP
1F80
71C0
6000
1F00
3380
7380
7380
7700
7C00
3800
3800
3800
3800
3800
3C00
0000
7F80
E380
C000
ENDCHAR
STARTCHAR ilf
ENCODING 4988
SWIDTH 1133 0
DWIDTH 18 0
BBX 15 19 0 -3
BITMAP
1FF8
1838
2000
1C3E
7E66
E6E6
E6E6
ECEC
F8F8
73F0
7CF0
7070
7070
7070
7060
0000
1FE0
30E0
6070
ENDCHAR
STARTCHAR ENCODING 4992
SWIDTH 1266 0
DWIDTH 20 0
BBX 17 20 0 -3
BITMAP
0FC000
39C000
79E000
71C000
F1C000
F1C000
F3C000
7F7800
007800
007800
007000
00F000
00E000
01E000
01E000
01F000
07FF00
1E0F00
1C0700
380380
ENDCHAR
STARTCHAR ENCODING 4993
SWIDTH 1200 0
DWIDTH 19 0
BBX 16 21 0 -4
BITMAP
007C
0FDC
39CE
39CE
7BDE
73DE
739C
7FF0
3B80
0380
0380
0380
0380
0380
0380
0380
03FE
7E0E
700E
7003
C000
ENDCHAR
STARTCHAR ENCODING 4994
SWIDTH 1400 0
DWIDTH 22 0
BBX 19 20 0 -3
BITMAP
780000
380000
380000
380000
3F8000
2F0000
1E0000
3DE000
3FF000
78F000
707000
F07800
E07800
F07800
407800
003C00
01FFC0
0783C0
0701C0
0E00E0
ENDCHAR
STARTCHAR ENCODING 5000
SWIDTH 1466 0
DWIDTH 23 0
BBX 20 22 0 0
BITMAP
000E00
F01E00
7BFE00
7F9E00
F38000
038000
07C000
3BE000
79E000
78E000
71E000
01FFF0
01EE70
01CE70
01CE70
03CFE0
03C000
03C000
038000
038000
078000
03C000
ENDCHAR
STARTCHAR ENCODING 5002
SWIDTH 1533 0
DWIDTH 24 0
BBX 21 21 0 0
BITMAP
000E00
F01E00
7BFE00
7F9E00
F38000
038000
07C000
79E000
79E700
71E700
61E700
01FF00
01C700
03CF00
03C0F8
038078
038038
078018
070000
070000
078000
ENDCHAR
STARTCHAR ENCODING 5003
SWIDTH 1200 0
DWIDTH 19 0
BBX 16 26 0 -4
BITMAP
0007
780F
3DFF
3FCF
79C0
01C0
03E0
1CF0
1CF0
1CF0
30F0
00F0
00E0
01E0
01E0
01E0
01C0
03C0
03C0
03C0
03C0
03FE
7E0E
700E
7003
C000
ENDCHAR
STARTCHAR ENCODING 5004
SWIDTH 1200 0
DWIDTH 19 0
BBX 16 25 0 -1
BITMAP
0007
780F
3DFF
3FCF
79C0
01C0
01F0
1EF0
1E78
1C78
1878
0078
0070
00F0
00F0
00E0
01FF
01E7
01E7
03EE
0F18
7800
7800
7000
E000
ENDCHAR
STARTCHAR ENCODING 5005
SWIDTH 1333 0
DWIDTH 21 0
BBX 18 21 0 0
BITMAP
000E00
F01E00
7BFE00
7F9E00
F38000
038000
07C000
79C000
79EA00
71E700
61EF00
01EE00
01FE00
03C1C0
03C1C0
0381C0
038000
078000
070000
070000
078000
ENDCHAR
STARTCHAR ENCODING 5008
SWIDTH 400 0
DWIDTH 7 0
BBX 4 4 0 0
BITMAP
60
F0
F0
60
ENDCHAR
STARTCHAR ENCODING 5009
SWIDTH 533 0
DWIDTH 9 0
BBX 6 12 0 0
BITMAP
1C
38
38
70
70
60
E0
60
70
38
38
1C
ENDCHAR
STARTCHAR ENCODING 5010
SWIDTH 533 0
DWIDTH 9 0
BBX 6 12 0 0
BITMAP
E0
70
70
38
18
1C
18
38
38
70
70
E0
ENDCHAR
STARTCHAR ENCODING 5011
SWIDTH 866 0
DWIDTH 14 0
BBX 11 11 0 0
BITMAP
1CE0
39C0
39C0
7380
7300
E700
E700
7380
7380
39C0
1CE0
ENDCHAR
STARTCHAR ENCODING 5012
SWIDTH 866 0
DWIDTH 14 0
BBX 11 11 0 0
BITMAP
E700
7380
39C0
39C0
1CE0
1CE0
19C0
39C0
7380
7380
E700
ENDCHAR
STARTCHAR ENCODING 5013
SWIDTH 666 0
DWIDTH 11 0
BBX 8 16 0 0
BITMAP
7C
FE
FF
47
07
0F
0E
1C
1C
18
18
00
18
3C
3C
18
ENDCHAR
STARTCHAR ENCODING 5014
SWIDTH 600 0
DWIDTH 10 0
BBX 7 8 0 0
BITMAP
0C
3E
5E
1E
1E
1C
38
E0
ENDCHAR
STARTCHAR ENCODING 5015
SWIDTH 400 0
DWIDTH 7 0
BBX 4 16 0 0
BITMAP
60
F0
F0
60
00
60
60
60
60
60
F0
F0
F0
F0
F0
60
ENDCHAR
STARTCHAR ENCODING 5016
SWIDTH 1266 0
DWIDTH 20 0
BBX 17 22 0 0
BITMAP
000E00
001C00
F3FC00
7C1E00
700000
C08000
03C000
03C000
03C000
03C800
01F000
00F000
00E000
01DE00
03FE00
038F00
078F00
078700
070700
0F0700
0F0780
0F0780
ENDCHAR
STARTCHAR ENCODING 5017
SWIDTH 1666 0
DWIDTH 26 0
BBX 23 22 0 0
BITMAP
000E00
001E00
FBFE00
7C1E00
700000
E0C000
03C000
03C000
03C000
01C800
01F800
007000
00E000
01FE00
01FF00
03CF7E
07879E
07871E
07078E
0F0780
0F0780
0F8380
ENDCHAR
STARTCHAR ENCODING 5018
SWIDTH 1666 0
DWIDTH 26 0
BBX 23 23 0 0
BITMAP
000E00
001C00
F3FE00
7C1E00
700000
C08000
03C000
03C000
03C000
03C800
01F000
00F000
00E000
01DE00
03FE00
038F00
078700
078700
070700
0F070E
0F079C
0F03FC
00001E
ENDCHAR
STARTCHAR ENCODING 5019
SWIDTH 1333 0
DWIDTH 21 0
BBX 18 22 0 0
BITMAP
000E00
001E00
FBFE00
7C0F00
700000
E0C000
03C000
01C000
01C000
01C000
01F800
007000
00E000
01FE00
01DF00
03C700
078780
078780
0F0380
0F8380
000380
0003C0
ENDCHAR
STARTCHAR ENCODING 5020
SWIDTH 1466 0
DWIDTH 23 0
BBX 20 22 0 0
BITMAP
000E00
001C00
F3FE00
7C1E00
700000
C00000
018000
078000
038000
038000
039000
03E000
00E000
01C000
03FC00
039E00
079E00
070FF0
0F0E70
0F0E70
0F0EE0
0F0F00
ENDCHAR
STARTCHAR ENCODING 5021
SWIDTH 1333 0
DWIDTH 21 0
BBX 18 23 0 0
BITMAP
000E00
001E00
FBFE00
7C0F00
700000
C00000
010000
07C000
078000
07F000
00E000
01E800
01F000
007000
00E000
01FE00
01CF00
03C700
038780
078780
078780
078380
0783C0
ENDCHAR
STARTCHAR ENCODING 5022
SWIDTH 1266 0
DWIDTH 20 0
BBX 17 22 0 0
BITMAP
000E00
001E00
FBFE00
7C0F00
780000
E00000
01C000
03C000
01C000
01C000
01F800
01B000
007000
00E400
01FE00
03CF00
038700
078700
070700
0F0780
0F0000
0F8000
ENDCHAR
STARTCHAR ENCODING 5024
SWIDTH 2000 0
DWIDTH 31 0
BBX 28 10 0 0
BITMAP
000F7000
07F7F870
1CE77FF0
38EF3B30
79EE7BF0
71CE7B00
F3CFF000
F38FC000
FF800000
70000000
ENDCHAR
STARTCHAR ENCODING 5025
SWIDTH 1866 0
DWIDTH 29 0
BBX 26 16 0 0
BITMAP
0003C000
1FFFC000
33B9C000
7739C000
F739C000
E73FC000
E713FC00
FF039C00
60039C00
00079F80
00078380
000703C0
000703C0
000F0000
000F0000
00070000
ENDCHAR
STARTCHAR ENCODING 5028
SWIDTH 1533 0
DWIDTH 24 0
BBX 21 20 0 -2
BITMAP
0003C0
1FFFC0
33B9E0
77B9E0
F739C0
E73FC0
E703C0
FE03C0
600380
000780
000780
0007F8
000778
000F78
000F78
001F80
00E000
01E000
01C000
038000
ENDCHAR
STARTCHAR ENCODING 5029
SWIDTH 2066 0
DWIDTH 32 0
BBX 29 10 0 0
BITMAP
000F7000
07F7F800
1CE73B80
38E73B80
79EF3F80
71CE7BF8
F3CF7038
F3CFC038
FF800000
70000000
ENDCHAR
STARTCHAR ENCODING 5032
SWIDTH 1400 0
DWIDTH 22 0
BBX 19 19 0 0
BITMAP
0000E0
0E01C0
0FFFE0
0F39C0
0E3800
003800
00FC00
01CE00
038E00
038E00
3F8E00
F78E00
F70E00
E70E00
C70E00
071E00
071E00
079E00
078800
ENDCHAR
STARTCHAR ENCODING 5033
SWIDTH 1533 0
DWIDTH 24 0
BBX 21 19 0 0
BITMAP
0000E0
0E01C0
0FFFE0
0F39C0
0E3800
003800
00FC00
01CE00
038E00
038E78
3F8FF8
F78E78
F70E00
E70E00
C70E00
071E00
071E00
079E00
078800
ENDCHAR
STARTCHAR ENCODING 5034
SWIDTH 1533 0
DWIDTH 24 0
BBX 21 20 0 0
BITMAP
0000E0
0F03E0
0FFFE0
0F39C0
0E3800
003800
00FC00
018E00
038E00
038E00
3F8E00
F70E00
F70E00
E70E00
C70E00
070E00
070E38
071E70
039FF8
000078
ENDCHAR
STARTCHAR ENCODING 5035
SWIDTH 1400 0
DWIDTH 22 0
BBX 19 19 0 0
BITMAP
0000E0
0F03E0
0FFDE0
0F39C0
0E3800
003800
00FC00
018E00
018E00
038E00
038E00
FF0E00
F70E00
778E00
E38E00
000E00
000E00
001E00
000E00
ENDCHAR
STARTCHAR ENCODING 5036
SWIDTH 1466 0
DWIDTH 23 0
BBX 20 19 0 0
BITMAP
0000E0
0F01E0
0FFFE0
0F39C0
0E3800
003800
00FC00
01CE00
018E00
038E00
3F8E00
F70E00
F70E00
E70E00
C70FF0
070E70
070E70
070EE0
038F80
ENDCHAR
STARTCHAR ENCODING 5037
SWIDTH 1200 0
DWIDTH 19 0
BBX 16 19 0 0
BITMAP
0003
000F
783F
7FEF
79E0
70F0
007C
00CE
01CE
038E
038E
FF8E
F38E
738E
E38E
038E
038E
038F
038F
ENDCHAR
STARTCHAR ENCODING 5038
SWIDTH 1466 0
DWIDTH 23 0
BBX 20 19 0 0
BITMAP
0000E0
0F01E0
0FFFE0
07BCF0
0F3C00
003800
006E00
00CF00
018F00
038F00
038F00
FF8F00
F78F00
778F00
E78000
070000
070000
078000
038000
ENDCHAR
STARTCHAR ENCODING 5040
SWIDTH 1133 0
DWIDTH 18 0
BBX 15 21 0 0
BITMAP
1C3C
0E38
0670
03C0
03C0
01C0
01C0
01C0
01FE
1FDE
73CE
73CE
F3DC
F3F8
7F80
0380
0380
0780
0780
0780
07C0
ENDCHAR
STARTCHAR ENCODING 5041
SWIDTH 1133 0
DWIDTH 18 0
BBX 15 20 0 0
BITMAP
103C
0E38
0770
03C0
03C0
01C0
01C0
01C0
0FFE
3BDE
73CE
F39E
F39C
7FE0
078E
079C
07FE
071E
0700
0780
ENDCHAR
STARTCHAR ENCODING 5042
SWIDTH 1133 0
DWIDTH 18 0
BBX 15 22 0 0
BITMAP
1C3C
0E38
0670
03C0
03C0
01C0
01C0
01C0
01FE
1FDE
73CE
73DE
F39C
F3F8
7F80
0380
0380
0780
078E
079C
07FC
001E
ENDCHAR
STARTCHAR ENCODING 5043
SWIDTH 1333 0
DWIDTH 21 0
BBX 18 21 0 0
BITMAP
070780
038F00
01CE00
007800
007800
003800
003800
003F80
03FBC0
0F39C0
0E39C0
0E3BC0
0FFF00
023800
007800
007000
01C000
7E0000
700000
700000
E00000
ENDCHAR
STARTCHAR ENCODING 5044
SWIDTH 1133 0
DWIDTH 18 0
BBX 15 20 0 0
BITMAP
1C3C
1E38
0670
03C0
01E0
01C0
01C0
01C0
0FFE
7BCE
73CE
F39E
F39C
7FE0
0380
07F8
07BC
073C
0738
07F0
ENDCHAR
STARTCHAR ENCODING 5045
SWIDTH 1133 0
DWIDTH 18 0
BBX 15 23 0 -1
BITMAP
C1E0
E3C0
7380
1E00
1E00
1E00
1E00
09E0
01E0
01E0
01C8
0FFE
39CE
73CE
73DE
739C
7FE0
0380
0380
0780
0780
0780
0780
ENDCHAR
STARTCHAR ENCODING 5046
SWIDTH 1133 0
DWIDTH 18 0
BBX 15 20 0 0
BITMAP
1E1E
0E38
0730
01C0
0370
0670
0E70
0760
07C0
0780
07FC
3B9C
739C
F39C
F3F8
7F80
0780
0780
0780
0780
ENDCHAR
STARTCHAR ENCODING 5048
SWIDTH 1200 0
DWIDTH 19 0
BBX 16 17 0 0
BITMAP
F70F
F30E
F38C
F198
F3E0
FCE0
38F0
38F0
70F0
70F0
70F0
70F0
70F0
70F0
70E0
70F0
78F0
ENDCHAR
STARTCHAR ENCODING 5049
SWIDTH 1333 0
DWIDTH 21 0
BBX 18 17 0 0
BITMAP
F70E00
F30E00
F31C00
F19800
F3E000
FDE000
38E000
30E000
70E380
70FF80
70E780
70E3C0
70E000
70E000
70E000
70E000
78F000
ENDCHAR
STARTCHAR ENCODING 5050
SWIDTH 1333 0
DWIDTH 21 0
BBX 18 18 0 0
BITMAP
F70E00
F30E00
F30C00
F19800
F3E000
FDE000
38E000
30F000
70E000
70E000
70E000
70E000
70E000
70E000
70E3C0
70E780
78FF80
0003C0
ENDCHAR
STARTCHAR ENCODING 5051
SWIDTH 1200 0
DWIDTH 19 0
BBX 16 17 0 0
BITMAP
F70F
F30E
F38C
F198
F3E0
FCE0
38F0
38F0
70F0
70F0
70F0
70F0
78F0
00F0
00E0
00F0
00F0
ENDCHAR
STARTCHAR ENCODING 5052
SWIDTH 1266 0
DWIDTH 20 0
BBX 17 17 0 0
BITMAP
F70E00
F30C00
F31C00
F19800
E3E000
FDE000
38E000
30E000
70E000
70E000
70E000
70E000
70FF80
70E780
70E780
70E700
78FE00
ENDCHAR
STARTCHAR ENCODING 5053
SWIDTH 1200 0
DWIDTH 19 0
BBX 16 17 0 0
BITMAP
F001
F38E
F18E
F0D8
F1E0
FEF0
3870
7878
7078
1C70
3870
3870
7870
7070
70F0
70F0
70F0
ENDCHAR
STARTCHAR ENCODING 5054
SWIDTH 1133 0
DWIDTH 18 0
BBX 15 17 0 0
BITMAP
740E
F30C
F398
F1F0
F3E0
FCE0
38E0
30E0
70E0
70F0
70E0
70F0
7060
7000
7000
7800
3800
ENDCHAR
STARTCHAR ENCODING 5056
SWIDTH 1266 0
DWIDTH 20 0
BBX 17 21 0 0
BITMAP
007800
1C7000
0C6600
065E00
F9FE00
7FCF00
73C000
E3C000
03DF00
03F380
00E380
00E380
01E380
01E380
01C380
01C380
01C780
01C780
01C780
01C780
01E780
ENDCHAR
STARTCHAR ENCODING 5057
SWIDTH 1666 0
DWIDTH 26 0
BBX 23 21 0 0
BITMAP
007800
1C7000
0C6700
064E00
F9FE00
7FCF00
7BC000
E3C000
03DF00
03F380
00E380
00E380
01E3BE
01E3DE
01E38E
01C380
01C380
01C380
01C780
01C780
01E380
ENDCHAR
STARTCHAR ENCODING 5058
SWIDTH 1666 0
DWIDTH 26 0
BBX 23 22 0 0
BITMAP
007800
1C7000
0C6700
064E00
F9FE00
7FCF00
7BC000
E3C000
03DF00
03F380
00E380
00E380
01E380
01E380
01E380
01C380
01C380
01C380
01C786
01C79C
01E3FC
00001E
ENDCHAR
STARTCHAR ENCODING 5059
SWIDTH 1266 0
DWIDTH 20 0
BBX 17 21 0 0
BITMAP
007800
1C7000
0C6600
065E00
F9FE00
7FDF00
73C000
E3C000
03DF00
03F380
00E380
00E380
01E380
01C380
01C380
01E380
018780
000780
000780
000780
000780
ENDCHAR
STARTCHAR ENCODING 5060
SWIDTH 1533 0
DWIDTH 24 0
BBX 21 21 0 0
BITMAP
007000
1C7000
0C6600
06DE00
FBFE00
7FDE00
738000
E38000
039F00
03F700
00E380
00E380
01C780
01C780
01C700
01C700
01C7F0
01C738
01C738
01C738
01C7E0
ENDCHAR
STARTCHAR ENCODING 5061
SWIDTH 1400 0
DWIDTH 22 0
BBX 19 21 0 0
BITMAP
003800
1C3000
0E7000
066F00
F9FF00
7FCF00
79C000
E1C000
03C780
03F9C0
0070E0
00E0E0
01F0E0
0071E0
00F1E0
00E1E0
01E1C0
01E1C0
01C1C0
01C1C0
01E1E0
ENDCHAR
STARTCHAR ENCODING 5062
SWIDTH 1266 0
DWIDTH 20 0
BBX 17 21 0 0
BITMAP
007000
1C7000
0C6600
06DE00
FBFE00
7FDF00
73C000
E3C000
03DF00
03F380
00E380
00E380
01E380
01C380
01C380
01C380
01C200
01C000
01C000
01C000
01E000
ENDCHAR
STARTCHAR ENCODING 5064
SWIDTH 933 0
DWIDTH 15 0
BBX 12 18 0 0
BITMAP
E0F0
70E0
79C0
3980
0F00
0FE0
3DE0
38E0
38E0
41E0
01E0
01C0
01C0
01C0
03C0
0380
0380
03C0
ENDCHAR
STARTCHAR ENCODING 5065
SWIDTH 1200 0
DWIDTH 19 0
BBX 16 17 0 0
BITMAP
F0F0
70E0
39C0
0F00
0F80
73C0
71C0
F1E0
01C0
03FF
03CF
0387
0783
0700
0700
0F00
0F00
ENDCHAR
STARTCHAR ENCODING 5066
SWIDTH 1266 0
DWIDTH 20 0
BBX 17 18 0 0
BITMAP
F0F000
71E000
39C000
1F0000
0FE000
1CF000
1CF000
38F000
00F000
00E000
00E000
01E000
01E000
01C000
01C380
03C700
03FF80
000780
ENDCHAR
STARTCHAR ENCODING 5067
SWIDTH 1133 0
DWIDTH 18 0
BBX 15 19 0 0
BITMAP
1E1E
0E1C
0F38
03F0
007C
079E
078E
070E
000E
000E
001E
001E
003C
0038
03F0
7C00
7800
7800
F000
ENDCHAR
STARTCHAR ENCODING 5068
SWIDTH 1066 0
DWIDTH 17 0
BBX 14 19 0 0
BITMAP
8030
78F0
38E0
1D80
0380
1FC0
39E0
39E0
71E0
01E0
01C0
01C0
03C0
03C0
03FC
039C
079C
07B8
07F0
ENDCHAR
STARTCHAR ENCODING 5069
SWIDTH 1133 0
DWIDTH 18 0
BBX 15 19 0 0
BITMAP
1C1E
0E3C
0738
03E0
01F8
1F3C
779C
E7BC
E73C
F73C
7838
0038
0078
0078
0070
0070
00F0
00F0
00F0
ENDCHAR
STARTCHAR ENCODING 5070
SWIDTH 866 0
DWIDTH 14 0
BBX 11 20 0 0
BITMAP
E0E0
71C0
3B80
1E00
0F00
0F00
0F00
0F00
1FE0
71E0
71E0
E1E0
03C0
03C0
03C0
0780
0780
0F00
0F00
0F00
ENDCHAR
STARTCHAR ENCODING 5072
SWIDTH 1266 0
DWIDTH 20 0
BBX 17 15 0 0
BITMAP
03E000
01E000
01C000
03CF80
03F980
071980
0E1980
1C1E00
390000
7F8000
73C000
F38E00
F3FE00
FF1E00
700F00
ENDCHAR
STARTCHAR ENCODING 5073
SWIDTH 1400 0
DWIDTH 22 0
BBX 19 15 0 0
BITMAP
01E700
01EF00
01FF00
03CE00
038E00
070FE0
0E01E0
1C01E0
3900E0
7FC020
73C000
F38E00
F3FE00
FF1E00
700F00
ENDCHAR
STARTCHAR ENCODING 5074
SWIDTH 1333 0
DWIDTH 21 0
BBX 18 19 0 -1
BITMAP
01E000
00E000
01E000
01E000
03C000
078000
0F0000
1C0000
390000
7F8000
738000
F38000
F39F80
FFF9C0
6739C0
1C3BC0
383F80
380000
300000
ENDCHAR
STARTCHAR ENCODING 5075
SWIDTH 1400 0
DWIDTH 22 0
BBX 19 15 0 0
BITMAP
03E000
01EE00
01CE00
03CE00
03FFE0
0701E0
0E01E0
1C00E0
390000
7F8000
73C000
F38E00
F3FE00
FF1E00
700F00
ENDCHAR
STARTCHAR ENCODING 5080
SWIDTH 1600 0
DWIDTH 25 0
BBX 22 15 0 0
BITMAP
0000FC
FF83BC
73873C
71C71C
E1CF00
03FF00
03CF00
7FCE00
7B8E00
7B8E00
738E00
038E00
038E00
039E00
038E00
ENDCHAR
STARTCHAR ENCODING 5081
SWIDTH 1600 0
DWIDTH 25 0
BBX 22 15 0 0
BITMAP
0000FC
FF83BC
73873C
71C71C
E1CF00
03FF1C
03CFF8
7FCE38
7B8E3C
7B8E00
738E00
038E00
038E00
039E00
038E00
ENDCHAR
STARTCHAR ENCODING 5082
SWIDTH 1600 0
DWIDTH 25 0
BBX 22 16 0 0
BITMAP
0000F8
FF0778
738F78
F38E3C
E38E00
03FE00
038E00
7F8E00
7B8E00
739E00
639E00
039C00
039C70
079CF0
039FF0
000078
ENDCHAR
STARTCHAR ENCODING 5083
SWIDTH 1600 0
DWIDTH 25 0
BBX 22 15 0 0
BITMAP
0000F8
FF0778
738F78
F38E3C
E38E00
03FE00
078E00
7B8E00
7B8E00
739E00
63DE00
001C00
001C00
001C00
001E00
ENDCHAR
STARTCHAR ENCODING 5084
SWIDTH 1600 0
DWIDTH 25 0
BBX 22 15 0 0
BITMAP
0000F8
FF0778
738F78
F38E3C
E38E00
03FE00
078E00
7B8E00
7B8E00
739E00
639FE0
039EF0
039CF0
079EE0
039F80
ENDCHAR
STARTCHAR ENCODING 5085
SWIDTH 1600 0
DWIDTH 25 0
BBX 22 20 0 0
BITMAP
E07800
F07000
F8F000
070000
070000
070008
9F03F8
738778
73CE3C
E3CE00
03CE00
038E00
7FFE00
7B8E00
738E00
639E00
039C00
039C00
079C00
039E00
ENDCHAR
STARTCHAR ENCODING 5086
SWIDTH 1600 0
DWIDTH 25 0
BBX 22 15 0 0
BITMAP
0000F8
FF0778
738F78
F38E3C
E38E00
03FE00
038E00
7F8E00
7B8E00
739E00
639E00
038000
038000
078000
038000
ENDCHAR
STARTCHAR ENCODING 5088
SWIDTH 1333 0
DWIDTH 21 0
BBX 18 16 0 0
BITMAP
0F8000
338000
71C000
61C000
E1C080
E1CFC0
E1FCC0
E1DDC0
E1DFC0
E1DC00
E1C000
E1C000
E1C000
E1C000
E1C000
F1E000
ENDCHAR
STARTCHAR ENCODING 5089
SWIDTH 1466 0
DWIDTH 23 0
BBX 20 16 0 0
BITMAP
0F8000
338000
71C000
61CF00
E1FE00
E1CE00
E1CE00
E1DFE0
E1DFE0
E1C0F0
E1C070
E1C000
E1C000
E1C000
E1C000
F1E000
ENDCHAR
STARTCHAR ENCODING 5090
SWIDTH 1200 0
DWIDTH 19 0
BBX 16 20 0 -3
BITMAP
0F80
33C0
61C0
61C0
E1C0
E1C0
E1C0
E1C0
E1C0
E1C0
E1C4
E1FF
E1CF
F1CF
01DE
07E0
3C00
3800
3800
2000
ENDCHAR
STARTCHAR ENCODING 5091
SWIDTH 1466 0
DWIDTH 23 0
BBX 20 16 0 0
BITMAP
0F8000
33C000
71C000
61C000
E1CF00
E1CF00
E1CF00
E1FFE0
E1C0E0
E1C0F0
E1C070
E1C000
E1C000
E1C000
E1C000
F1E000
ENDCHAR
STARTCHAR ENCODING 5096
SWIDTH 2066 0
DWIDTH 32 0
BBX 29 12 0 0
BITMAP
000FFE00
00778700
00C70380
01870380
03870380
03070380
7F070380
F7E7E380
F77773F8
E7373B98
07777398
0787C3F8
ENDCHAR
STARTCHAR ENCODING 5097
SWIDTH 2133 0
DWIDTH 33 0
BBX 30 12 0 0
BITMAP
000FFE00
00778700
00C70380
0187038C
038703FC
0307039C
7F070388
F7E7E380
F77773F8
E7373B98
07777398
0787C3F8
ENDCHAR
STARTCHAR ENCODING 5098
SWIDTH 2133 0
DWIDTH 33 0
BBX 30 14 0 -1
BITMAP
0007FC00
007F0700
00C70300
01870380
03870380
03070380
7F070380
F7E7E380
F7777B80
E7373B80
07777384
0787C3FC
0000003C
0000001C
ENDCHAR
STARTCHAR ENCODING 5099
SWIDTH 2000 0
DWIDTH 31 0
BBX 28 14 0 0
BITMAP
003FFE00
00E38380
01838180
03F3F1C0
077B3BC0
7F773B80
F7F7F380
F6060780
E0000700
00000FE0
00000EF0
00001E70
00001EE0
00001F80
ENDCHAR
STARTCHAR ENCODING 5100
SWIDTH 2400 0
DWIDTH 37 0
BBX 34 12 0 0
BITMAP
0007FC0000
003B870000
00C3839F80
018383F9C0
038383BDC0
0303839F80
7F03838000
F7F3F3F800
F73BBBBC00
E73B9B9C00
073BBB9800
07C3E3E000
ENDCHAR
STARTCHAR ENCODING 5101
SWIDTH 2000 0
DWIDTH 31 0
BBX 28 15 0 0
BITMAP
001FFE00
00E1C700
01C1C700
03F3C7F0
03BB8770
3FBB8E70
F7B1CEE0
F7E1CFC0
E003C000
80038000
0003B000
0007F800
00073800
0007F800
00074000
ENDCHAR
STARTCHAR ENCODING 5102
SWIDTH 2200 0
DWIDTH 34 0
BBX 31 15 0 0
BITMAP
000FDF80
0071E3C0
00E1C1C0
01C1FDFC
01C39DDE
03839DCE
03839DDC
0383F1F8
3F000000
F7700000
F7F80000
E7380000
87380000
07F00000
07000000
ENDCHAR
STARTCHAR ENCODING 5104
SWIDTH 1333 0
DWIDTH 21 0
BBX 18 14 0 0
BITMAP
007F80
7FC780
71C380
71C140
81C000
03C000
03CFC0
03FCC0
039CC0
039FC0
038000
038000
078000
03C000
ENDCHAR
STARTCHAR ENCODING 5105
SWIDTH 1400 0
DWIDTH 22 0
BBX 19 14 0 0
BITMAP
007F80
7FE780
71C3C0
71C180
C1C000
01CE00
03FE00
03CE00
03DE00
039FC0
039DC0
0381E0
0380E0
03C000
ENDCHAR
STARTCHAR ENCODING 5106
SWIDTH 1333 0
DWIDTH 21 0
BBX 18 20 0 -2
BITMAP
003F80
7FE780
79C780
71C3C0
E1C000
01C000
01C000
03C000
03C000
03F800
039C00
039E00
039C00
03BC00
0FF800
F00000
700000
700000
600000
400000
ENDCHAR
STARTCHAR ENCODING 5107
SWIDTH 1466 0
DWIDTH 23 0
BBX 20 15 0 0
BITMAP
001F80
FFE780
71C380
71C1C0
E1C000
01C300
01CF00
03C720
03FFE0
03C1E0
03C0F0
038000
038000
038000
03C000
ENDCHAR
STARTCHAR ENCODING 5112
SWIDTH 1266 0
DWIDTH 20 0
BBX 17 18 0 0
BITMAP
000380
380780
3FFF80
1CF380
30E000
00E000
00E000
3FFF80
3CE780
39E380
71E000
01C000
01C000
7FC000
79C000
71C000
E3C000
01C000
ENDCHAR
STARTCHAR ENCODING 5113
SWIDTH 1266 0
DWIDTH 20 0
BBX 17 18 0 0
BITMAP
000380
380780
3FFF80
1CF380
30E000
00E000
00E000
3FFF80
3CE780
39E380
71E000
01C000
01C700
7FDF00
79EF00
71CF00
E3C000
01C000
ENDCHAR
STARTCHAR ENCODING 5114
SWIDTH 1266 0
DWIDTH 20 0
BBX 17 19 0 0
BITMAP
000380
3C0780
1EFF80
1FE780
3CE000
00E000
00E000
03FF80
3DE780
39E380
39C100
41C000
01C000
7FC000
79C000
73C700
E3CF00
03FF00
000780
ENDCHAR
STARTCHAR ENCODING 5115
SWIDTH 1266 0
DWIDTH 20 0
BBX 17 22 0 -3
BITMAP
000380
3C0780
1E7F80
1FE780
1CE000
20E000
00E000
1FE000
3CFF00
39E700
79E780
01E000
07C000
79C000
79C000
738000
C70000
1C0000
700000
700000
700000
C00000
ENDCHAR
STARTCHAR ENCODING 5116
SWIDTH 1266 0
DWIDTH 20 0
BBX 17 18 0 0
BITMAP
000380
3C0780
1EFF80
1FE780
3CE000
00E000
00E000
03FF80
3DE780
39E380
39C100
41C000
01C000
7FFE00
79CE00
73CE00
C3FC00
03C000
ENDCHAR
STARTCHAR ENCODING 5117
SWIDTH 1400 0
DWIDTH 22 0
BBX 19 20 0 0
BITMAP
000700
F00F00
7FFF00
79C600
71C000
03F800
003800
007800
17FFE0
0E79E0
0E70E0
1C7000
007000
03F000
1EF000
1CF000
3CF000
00F000
00F000
00F000
ENDCHAR
STARTCHAR ENCODING 5118
SWIDTH 1333 0
DWIDTH 21 0
BBX 18 20 0 0
BITMAP
0003C0
0C03C0
0E0380
0F7C00
1FB800
039C00
039800
03B800
03F000
01C000
7FFF00
79C700
79C700
71C380
01C000
7FC000
7BC000
73C000
E3C000
03C000
ENDCHAR
ENDFONT
